<svg width="124" height="124" viewBox="0 0 124 124" fill="none" xmlns="http://www.w3.org/2000/svg">
<path d="M29 83.5909V74.0396C29 50.8852 47.8079 32.1445 71.0454 32.1445V49.7998C59.0635 50.5234 49.6233 60.4364 49.6233 72.4478V83.6632H29V83.5909Z" fill="#F0EFE7"/>
<path d="M71.0459 83.5901V49.799C71.4816 49.6543 72.0625 49.6543 72.4982 49.6543C85.1336 49.6543 95.3727 60.0014 95.3727 72.447V83.6624H71.0459V83.5901Z" fill="#F0EFE7"/>
<path d="M59.1359 83.5914C61.3818 83.5914 63.2025 81.7772 63.2025 79.5393C63.2025 77.3015 61.3818 75.4873 59.1359 75.4873C56.89 75.4873 55.0693 77.3015 55.0693 79.5393C55.0693 81.7772 56.89 83.5914 59.1359 83.5914Z" fill="#F0EFE7"/>
<circle cx="62" cy="62" r="61" stroke="#F0EFE7" stroke-width="2"/>
</svg>
