<svg width="110" height="25" viewBox="0 0 110 25" fill="none" xmlns="http://www.w3.org/2000/svg">
<g clip-path="url(#clip0_4552_3249)">
<path d="M20.5413 15.5055C20.1691 17.4181 19.4993 19.0574 18.5318 20.4919C17.5643 21.9263 16.2991 23.0192 14.8106 23.8389C13.3221 24.5902 11.6103 25.0001 9.82409 25.0001C7.88904 25.0001 6.17727 24.5902 4.68877 23.8389C3.20027 23.0192 2.0839 21.9263 1.26522 20.4919C0.446549 19.0574 0 17.3498 0 15.5055C0 13.593 0.446549 11.9536 1.26522 10.5192C2.0839 9.08476 3.20027 7.99186 4.68877 7.17219C6.17727 6.35252 7.88904 6.01099 9.82409 6.01099C11.6847 6.01099 13.3221 6.42082 14.8106 7.17219C16.2991 7.99186 17.5643 9.08476 18.5318 10.5192C19.4993 11.8853 20.1691 13.5246 20.5413 15.5055ZM5.87957 15.5055C5.87957 16.5984 6.10284 17.4864 6.62382 18.3061C7.07036 19.1257 7.74019 19.7405 8.55886 20.2186C9.37754 20.6968 10.3451 20.9017 11.4614 20.9017C12.5778 20.9017 13.5453 20.6968 14.5129 20.2186C15.4804 19.7405 16.2991 19.1257 17.0433 18.3061C17.7875 17.4864 18.3829 16.5984 18.7551 15.5055C18.3085 14.4126 17.7875 13.5246 17.0433 12.705C16.2991 11.8853 15.4804 11.2705 14.5129 10.7924C13.5453 10.3143 12.5034 10.1093 11.4614 10.1093C10.3451 10.1093 9.37754 10.3143 8.55886 10.7924C7.74019 11.2705 7.07036 11.8853 6.62382 12.705C6.10284 13.4563 5.87957 14.4126 5.87957 15.5055ZM19.0528 24.5219L18.2341 17.8962L19.2016 15.5055L18.2341 13.1148L19.0528 6.42082H25.0812L23.9648 15.5055L25.0812 24.5219H19.0528Z" fill="white"/>
<path d="M43.8373 6.42065L39.5207 11.1338L42.7954 14.5491L50.1634 6.42065H43.8373ZM41.0836 17.6228L36.9158 13.3196L33.4178 6.42065H26.9428L34.8319 15.3004L26.4219 24.5217H32.8968L38.4787 18.3742L44.135 24.5217H50.7588L41.0836 17.6228Z" fill="white"/>
<path d="M73.236 10.4508C72.194 9.01634 70.78 7.92345 68.9193 7.10378C67.0587 6.2841 64.9004 5.87427 62.4444 5.87427C59.9884 5.87427 57.83 6.2841 55.9694 7.10378C54.1088 7.92345 52.6947 9.01634 51.6528 10.4508C50.6108 11.8852 50.0898 13.5245 50.0898 15.4371C50.0898 17.3497 50.6108 18.989 51.6528 20.4234C52.6947 21.8579 54.1088 22.9508 55.9694 23.7704C57.83 24.5901 59.9884 24.9999 62.4444 24.9999C64.9004 24.9999 67.0587 24.5901 68.9193 23.7704C70.78 22.9508 72.194 21.8579 73.236 20.4234C74.2779 18.989 74.7989 17.3497 74.7989 15.4371C74.7989 13.5928 74.2779 11.8852 73.236 10.4508ZM68.1007 18.3743C67.5797 19.1939 66.8354 19.8087 65.8679 20.2868C64.9004 20.765 63.784 20.9699 62.4444 20.9699C61.1047 20.9699 59.9884 20.765 59.0208 20.2868C58.0533 19.877 57.3091 19.1939 56.7881 18.3743C56.2671 17.5546 55.9694 16.5983 55.9694 15.4371C55.9694 14.2759 56.2671 13.3196 56.7881 12.4999C57.3091 11.6803 58.0533 11.0655 59.0208 10.5874C59.9884 10.1775 61.1047 9.90432 62.4444 9.90432C63.784 9.90432 64.9004 10.1092 65.8679 10.5874C66.8354 11.0655 67.5797 11.6803 68.1007 12.4999C68.6216 13.3196 68.8449 14.2759 68.8449 15.4371C68.9193 16.5983 68.6216 17.5546 68.1007 18.3743Z" fill="white"/>
<path d="M78.1484 0H83.9536V24.5219H78.1484V0Z" fill="white"/>
<path d="M99.432 25C97.1249 25 95.041 24.5902 93.1803 23.8388C91.3197 23.0191 89.9057 21.9262 88.8637 20.4918C87.8218 19.0574 87.3008 17.3497 87.3008 15.4372C87.3008 13.5246 87.8218 11.8853 88.7893 10.4508C89.8312 9.0164 91.1709 7.9235 92.9571 7.10383C94.7433 6.28416 96.7527 5.94263 98.9855 5.94263C101.293 5.94263 103.228 6.42077 104.865 7.30875C106.502 8.26503 107.768 9.56285 108.661 11.2022C109.554 12.9098 110 14.8224 110 17.1448H91.9895V13.5929H106.875L104.642 14.8907C104.567 13.7978 104.27 12.9098 103.823 12.1585C103.377 11.4071 102.707 10.8607 101.888 10.4508C101.069 10.041 100.102 9.83607 99.0599 9.83607C97.8691 9.83607 96.8272 10.041 96.0085 10.5191C95.1154 10.929 94.4456 11.5437 93.999 12.3634C93.5525 13.1148 93.2548 14.071 93.2548 15.0956C93.2548 16.3251 93.5525 17.418 94.1479 18.306C94.7433 19.194 95.6364 19.8771 96.7527 20.3552C97.9435 20.8333 99.2832 21.0383 100.921 21.0383C102.409 21.0383 103.898 20.8333 105.386 20.4235C106.875 20.0137 108.214 19.4672 109.479 18.7842V22.3361C108.214 23.1557 106.651 23.8388 104.939 24.3169C103.228 24.7951 101.367 25 99.432 25Z" fill="white"/>
</g>
<defs>
<clipPath id="clip0_4552_3249">
<rect width="110" height="25" fill="white"/>
</clipPath>
</defs>
</svg>
