<svg width="90" height="80" viewBox="0 0 90 80" fill="none" xmlns="http://www.w3.org/2000/svg">
<path opacity="0.08" d="M52.9008 80V65.9227C60.687 65.0071 66.1832 62.0315 69.3893 56.9957C72.5954 51.9599 74.1985 43.9485 74.1985 32.9614L84.5038 34.3348H53.2443V0H90V26.7811C90 41.4306 87.0229 53.4478 81.0687 62.8326C75.3435 72.2174 65.9542 77.9399 52.9008 80ZM0 80V65.9227C7.78626 65.0071 13.2824 62.0315 16.4885 56.9957C19.6947 51.9599 21.2977 43.9485 21.2977 32.9614L31.6031 34.3348H0.343513V0H37.0992V26.7811C37.0992 41.4306 34.1221 53.4478 28.1679 62.8326C22.4428 72.2174 13.0534 77.9399 0 80Z" fill="#1A1A1A"/>
</svg>
