<svg width="87" height="67" viewBox="0 0 87 67" fill="none" xmlns="http://www.w3.org/2000/svg">
<mask id="mask0_3989_313" style="mask-type:alpha" maskUnits="userSpaceOnUse" x="0" y="0" width="87" height="67">
<rect width="87" height="67" fill="#D9D9D9"/>
</mask>
<g mask="url(#mask0_3989_313)">
<path d="M59.5137 10.0367H58.3294C58.0403 9.62848 57.7213 9.23382 57.3606 8.87556C55.6929 7.19344 53.4774 6.2678 51.1173 6.2678C48.9018 6.2678 46.821 7.09281 45.1909 8.5851C44.1512 7.61022 42.9024 6.71242 41.4757 5.95022C38.0398 4.11823 34.3458 3.53373 31.608 4.38086C30.1409 4.83904 29.0367 5.69615 28.4286 6.86158C27.9332 7.79077 27.7893 8.88055 27.9871 10.036H16.5374C14.6111 10.036 13.0519 11.6103 13.0519 13.5465V33.7812C12.7322 33.7448 12.4083 33.7234 12.083 33.7234C9.72366 33.7234 7.50815 34.6526 5.83695 36.3347C4.17071 38.0147 3.25219 40.2449 3.25219 42.6165C3.25219 44.8467 4.07149 46.952 5.55346 48.5878C4.58462 49.6361 3.69303 50.8922 2.93681 52.3288C1.11748 55.7894 0.53632 59.5019 1.37901 62.2652C1.83401 63.7475 2.68521 64.853 3.84257 65.4703C4.99568 66.0805 6.38622 66.1683 7.85614 65.7087C10.3509 64.9386 12.8237 62.7198 14.6203 59.7167C15.1689 60.095 15.8181 60.3248 16.5389 60.3248H59.5144C61.4408 60.3248 63 58.7561 63 56.8142V13.5451C62.9986 11.6111 61.4408 10.0367 59.5137 10.0367ZM50.78 7.72868C52.8381 7.72868 54.7836 8.53585 56.2387 10.006C57.6987 11.4755 58.5038 13.4302 58.5038 15.507C58.5038 16.2328 58.3961 16.9408 58.2075 17.6152L48.6821 8.02414C49.3561 7.83359 50.0599 7.72868 50.78 7.72868ZM55.7029 21.5425L55.1536 22.0999L51.2853 18.2047C51.7346 18.286 52.1989 18.4409 52.6624 18.685C53.756 19.2702 54.8006 20.2686 55.7029 21.5425ZM53.7751 17.693C53.627 17.603 53.4781 17.4981 53.3293 17.4153C52.1535 16.7944 50.9742 16.5768 49.8664 16.7759L48.5879 15.4834C48.6871 14.1546 48.2774 12.713 47.4263 11.302L53.7751 17.693ZM47.5914 20.2586C47.7353 19.9874 47.8976 19.7376 48.0733 19.5107L52.892 24.3672L51.505 25.7681C51.4689 25.8045 51.4242 25.8366 51.3874 25.8766L47.091 21.5503C47.2271 21.09 47.388 20.654 47.5914 20.2586ZM44.9287 10.3957C45.9563 11.539 46.6764 12.7451 46.9911 13.8827L44.2306 11.1022L44.9287 10.3957ZM46.1009 17.5295C45.6679 17.9156 45.1278 18.2239 44.4701 18.4273C44.3432 18.463 44.2086 18.4866 44.0831 18.518L40.4806 14.8904C40.5161 14.854 40.543 14.8133 40.5799 14.7762L41.9761 13.3752L46.1009 17.5295ZM29.6894 7.53457C30.1175 6.71457 30.9283 6.10152 32.0311 5.76181C34.3827 5.02744 37.7414 5.59338 40.8102 7.22126C42.0838 7.89711 43.21 8.71783 44.1512 9.60279L39.4579 14.328C38.4941 15.2986 37.7874 16.4597 37.3643 17.7244C36.8009 17.5024 36.2424 17.2576 35.6924 16.9629C32.6257 15.3307 30.2741 12.85 29.5491 10.4827C29.2068 9.37513 29.2557 8.35529 29.6894 7.53457ZM39.4452 18.3909C39.1751 18.3224 38.8959 18.246 38.6252 18.1633C38.6705 18.0098 38.7109 17.8557 38.7605 17.7015L39.4452 18.3909ZM15.5828 41.0664C16.1639 39.9652 17.1547 38.9125 18.4205 38.0054L18.9698 38.5585L15.1058 42.4538C15.1873 42.0013 15.3404 41.5381 15.5828 41.0664ZM18.4298 46.6765C17.9712 46.5395 17.5332 46.3782 17.1512 46.172C16.872 46.0278 16.6289 45.8637 16.4077 45.6924L21.2321 40.8351L22.6191 42.2318C22.6552 42.2689 22.6864 42.3124 22.7268 42.3496L18.4298 46.6765ZM24.442 45.1621C24.617 45.661 24.7347 46.1877 24.807 46.7129C24.0507 46.8849 23.2981 46.9955 22.5638 47.0534L24.442 45.1621ZM13.6869 43.8825L12.4041 45.1693C11.0844 45.0651 9.65136 45.4826 8.25161 46.3397L14.5976 39.9495C14.5076 40.0929 14.4041 40.2399 14.3226 40.3934C13.7004 41.5752 13.4885 42.7728 13.6869 43.8825ZM10.8087 46.7779L8.05317 49.5562L7.35081 48.8547C8.4855 47.8141 9.68397 47.0933 10.8087 46.7779ZM4.99497 45.0758C4.80503 44.3964 4.70227 43.6898 4.70227 42.9626C4.70227 40.8908 5.50385 38.9346 6.96384 37.4645C8.42384 35.9943 10.3601 35.1843 12.4225 35.1843C13.1433 35.1843 13.8457 35.2928 14.5211 35.4783L4.99497 45.0758ZM13.8712 58.1545C12.2503 61.2426 9.78602 63.6155 7.43586 64.3399C6.33236 64.6839 5.32383 64.6339 4.50807 64.2C3.69303 63.7689 3.08493 62.9511 2.7419 61.8463C2.01758 59.4748 2.57535 56.0913 4.19694 53.0025C4.86811 51.7165 5.68386 50.5846 6.56624 49.6383L11.2503 54.3621C12.2191 55.3348 13.3715 56.042 14.6281 56.4781C14.4041 57.0383 14.161 57.6007 13.8712 58.1545ZM15.0661 55.2077C14.9081 55.1621 14.755 55.1171 14.6111 55.0629L15.2865 54.3785C15.2227 54.6525 15.1462 54.9266 15.0661 55.2077ZM11.8137 53.3379C11.7726 53.3015 11.7372 53.2644 11.701 53.2295L10.3048 51.8285L14.4346 47.6735C14.818 48.1096 15.1242 48.6527 15.3262 49.3171C15.3624 49.4377 15.3843 49.5797 15.412 49.7046L11.8137 53.3379ZM16.48 47.4423C16.7366 47.5822 17.0165 47.6971 17.3036 47.8084L16.5559 48.5578C16.3404 47.9626 16.0697 47.4245 15.7281 46.9734C15.9619 47.1404 16.2135 47.3024 16.48 47.4423ZM17.1597 55.5018C16.9301 55.5018 16.7004 55.4904 16.4751 55.4739C16.7543 54.5084 16.9386 53.5556 17.0158 52.6393L18.439 51.2062C18.2363 52.144 18.4978 53.1695 19.2356 53.8946L20.6134 54.6796C19.5559 55.2149 18.3787 55.5018 17.1597 55.5018ZM20.6467 48.9838L21.0882 48.5399C22.2909 48.572 23.5645 48.4436 24.853 48.1681C24.7992 49.2094 24.5426 50.2121 24.0975 51.1327L23.2683 49.746C22.5461 49.0402 21.5602 48.7847 20.6467 48.9838ZM21.8756 55.7737C21.9883 55.7038 22.1053 55.6552 22.213 55.5881L24.7184 53.0253L28.6816 59.6404L21.8756 55.7737ZM33.2785 41.167C32.1438 43.3301 29.4237 45.3013 26.1621 46.3418C25.824 44.6262 24.9955 43.049 23.7431 41.7879L19.3653 37.3845C20.4015 36.7629 21.5723 36.2377 22.8154 35.8473C27.8326 34.2915 32.8135 35.3898 33.6881 38.2424C33.9582 39.1316 33.8185 40.1415 33.2785 41.167ZM34.3508 32.2047L38.2191 25.3121C38.2283 25.3257 38.2325 25.3428 38.2417 25.3613L41.0476 28.1375L34.3508 32.2047ZM39.9214 22.3632L39.1418 23.7556C38.6103 22.6851 38.3268 21.5011 38.3268 20.2729C38.3268 20.0402 38.336 19.8097 38.3537 19.5828C39.3134 19.8639 40.2538 20.0502 41.1731 20.1273L42.5962 21.5646C41.6607 21.3569 40.6429 21.6253 39.9214 22.3632ZM42.6678 27.2569L44.0413 26.4219C44.7437 25.7003 44.991 24.7026 44.7975 23.782L45.2433 24.2266C45.2072 25.4377 45.3334 26.7209 45.6083 28.0226C44.5793 27.9648 43.5785 27.7057 42.6678 27.2569ZM45.9663 20.4185L45.2277 19.6655C45.8132 19.4479 46.3525 19.1802 46.7948 18.8305C46.6325 19.071 46.4702 19.3216 46.3298 19.5885C46.1895 19.8511 46.0775 20.133 45.9663 20.4185ZM46.7225 25.716L48.5957 27.6066C48.1003 27.7835 47.5772 27.9013 47.0556 27.9741C46.8841 27.2112 46.7763 26.454 46.7225 25.716ZM55.469 36.9164C54.5866 37.189 53.5866 37.0484 52.5639 36.5017C50.415 35.3649 48.4567 32.6208 47.4248 29.3365C49.1265 28.9968 50.6942 28.1675 51.9466 26.9014L56.3244 22.4981C56.9368 23.5408 57.4591 24.7155 57.8468 25.968C59.3862 31.0257 58.3018 36.0364 55.469 36.9164Z" fill="black"/>
</g>
</svg>
