<svg width="87" height="67" viewBox="0 0 87 67" fill="none" xmlns="http://www.w3.org/2000/svg">
<mask id="mask0_3989_323" style="mask-type:alpha" maskUnits="userSpaceOnUse" x="0" y="0" width="87" height="67">
<rect width="87" height="67" fill="#D9D9D9"/>
</mask>
<g mask="url(#mask0_3989_323)">
<path d="M54.1827 33.8625V9.16091C54.1827 6.91851 52.3631 5.10352 50.1256 5.10352H5.25402C3.01621 5.10352 1.19678 6.91851 1.19678 9.16091V54.0275C1.19678 56.2654 3.01637 58.0852 5.25402 58.0852H12.4191C13.1525 58.7389 13.9236 59.3593 14.7228 59.9422C19.7818 63.6095 25.7198 65.5464 31.9118 65.5464C33.4631 65.5464 35.0336 65.4241 36.5757 65.1796C41.7381 64.3614 46.3643 61.8692 49.8527 58.0852H50.1256C52.3636 58.0852 54.1827 56.2651 54.1827 54.0275V51.3947C55.8519 47.4689 56.3971 43.1386 55.7107 38.8229C55.4334 37.0784 54.9117 35.4144 54.1827 33.8625ZM7.2004 47.5303L9.04344 47.6288L8.01844 49.1946C7.72715 48.6487 7.45427 48.0941 7.2004 47.5303ZM16.0064 58.259C15.9923 58.249 15.9782 58.24 15.9641 58.2354C15.3199 57.7606 14.7041 57.2671 14.1068 56.7499L16.4435 55.9271L16.0064 58.259ZM25.0474 62.5373L26.5893 60.7505L27.389 63.0495C26.5988 62.9131 25.8185 62.7394 25.0474 62.5373ZM37.262 62.9085L38.1648 60.3745L39.7352 62.2272C38.9265 62.4996 38.1081 62.7299 37.262 62.9085ZM49.4108 55.3483L47.7512 57.0928L46.9704 54.4322L49.6222 55.0712C49.5518 55.1651 49.4857 55.2591 49.4108 55.3483ZM50.163 54.3377L45.748 53.2658L47.0974 57.8595C45.1932 59.6083 42.9883 60.981 40.5809 61.9166L37.8541 58.7146L36.3026 63.0826C36.2838 63.0871 36.2652 63.0871 36.2461 63.0921C34.8074 63.3224 33.3497 63.4352 31.9112 63.4352C30.7031 63.4352 29.5132 63.3364 28.3286 63.1812L26.8993 59.091L24.1488 62.2828C21.5491 61.5025 19.0666 60.3227 16.7722 58.7665L17.5435 54.6431L13.3875 56.1049C11.4599 54.3092 9.81426 52.2594 8.49323 50.0168L10.5478 46.8664L6.81498 46.6596C6.00154 44.694 5.40932 42.6114 5.06607 40.4583C3.12859 28.2722 7.62321 16.1518 17.0922 7.97126L19.3395 6.27861H38.5544L32.7297 7.97126C19.4011 11.8358 10.6892 25.1553 12.9176 39.2127C13.7262 44.2997 16.4719 48.7657 20.6375 51.7939C23.9613 54.2058 27.8637 55.4796 31.9307 55.4796C32.9506 55.4796 33.9804 55.3997 34.9958 55.2357C40.8917 54.3043 45.9364 48.5918 46.0069 42.7671C46.0442 40.1763 45.1041 37.8397 43.2942 36.0063C40.9668 33.6508 37.2714 32.2404 33.4163 32.2404C31.7048 32.2404 30.0596 32.5084 28.5079 33.0443C28.1506 33.1663 27.798 33.2326 27.4831 33.2326C26.5991 33.2326 26.3781 32.7668 26.2747 32.3156C26.0068 31.1027 27.5395 29.5699 28.0474 29.0668C28.1886 28.9259 28.3201 28.7896 28.4331 28.6627C30.2759 27.0405 32.523 25.978 34.9491 25.5927C39.2372 24.9156 43.5816 25.9547 47.0978 28.5075C50.6239 31.0651 52.9422 34.8453 53.6235 39.1517C54.4788 44.5164 53.2425 49.8903 50.163 54.3377Z" fill="black"/>
<path d="M34.1217 26.4202C32.7961 26.4202 31.7239 27.4967 31.7239 28.8179C31.7239 30.1435 32.7959 31.2202 34.1217 31.2202C35.4475 31.2202 36.5197 30.1435 36.5197 28.8179C36.5196 27.4965 35.4475 26.4202 34.1217 26.4202ZM34.1217 30.3741C33.266 30.3741 32.5701 29.6782 32.5701 28.818C32.5701 27.9623 33.2657 27.2664 34.1217 27.2664C34.9775 27.2664 35.6735 27.9623 35.6735 28.818C35.6733 29.6781 34.9775 30.3741 34.1217 30.3741Z" fill="black"/>
</g>
</svg>
