<svg width="87" height="67" viewBox="0 0 87 67" fill="none" xmlns="http://www.w3.org/2000/svg">
<mask id="mask0_3989_296" style="mask-type:alpha" maskUnits="userSpaceOnUse" x="0" y="0" width="87" height="67">
<rect width="87" height="67" fill="#D9D9D9"/>
</mask>
<g mask="url(#mask0_3989_296)">
<path fill-rule="evenodd" clip-rule="evenodd" d="M13.9336 45.6522C13.9336 47.0118 13.0888 47.2667 12.3272 46.5018C7.17011 41.5669 8.77648 31.7003 10.7209 24.6408C11.4825 21.6634 9.8761 20.8987 8.09933 22.7697C3.11114 28.1279 0.491101 33.7426 1.0823 41.5669C2.51975 59.8557 16.5551 67.853 33.3794 65.6405C44.1191 64.2778 50.1193 56.2835 53.2475 48.3715C55.3623 43.0997 55.7001 31.4454 53.5039 21.2387C52.5719 17.3251 50.0348 8.64955 46.3152 6.69341C41.9197 4.39608 32.7878 8.30968 29.1528 11.1155C19.2596 18.7711 13.7647 33.8277 13.9336 45.6522Z" fill="black"/>
</g>
</svg>
