<svg width="87" height="67" viewBox="0 0 87 67" fill="none" xmlns="http://www.w3.org/2000/svg">
<mask id="mask0_3989_286" style="mask-type:alpha" maskUnits="userSpaceOnUse" x="0" y="0" width="87" height="67">
<rect width="87" height="67" fill="#D9D9D9"/>
</mask>
<g mask="url(#mask0_3989_286)">
<path d="M70.8274 36.148C70.8274 36.042 70.8274 36.042 70.8274 36.148C69.3495 34.5575 67.2382 33.9213 63.6491 33.9213C62.3823 33.9213 60.6933 34.0273 59.0043 34.2394V6.03381C59.0043 3.80706 57.2097 2.00445 54.9929 2.00445H6.01141C3.79458 1.89841 2 3.70102 2 5.92778V55.3405C2 57.5673 3.79458 59.3699 6.01141 59.3699H19.2068C19.5235 59.794 19.7347 60.2182 20.0514 60.5363C23.5349 64.7777 29.6576 67.0045 38.1027 67.0045C44.6476 67.0045 51.2981 65.8381 55.7318 64.9898L57.3153 64.6717C62.699 63.7173 65.6548 62.5509 67.5549 60.5363C68.3994 60.2182 69.3495 59.688 69.7717 58.8397C69.9829 58.4155 69.9829 57.8854 69.8773 57.4612C69.7718 57.1431 69.4551 56.825 69.2439 56.6129C69.4551 56.2948 69.6662 55.9767 69.7717 55.7646C70.4051 55.4465 71.0385 55.0224 71.3552 54.3862C71.5663 53.962 71.5663 53.4319 71.4608 53.0077C71.2496 52.5836 70.933 52.1594 70.5107 51.9474C70.5107 51.6292 70.5107 51.4172 70.4051 51.0991C70.5107 50.993 70.6163 50.781 70.7218 50.6749C71.6719 50.3568 73.1498 49.6146 73.6776 48.5542C73.8887 48.024 73.9943 47.3878 73.7832 46.8576C73.4665 45.9033 72.5164 45.3731 71.4608 45.055C71.4608 44.949 71.5663 44.843 71.6719 44.7369C71.883 44.3128 72.1997 43.8886 72.5164 43.4645C73.6776 43.0403 75.261 42.1921 75.8944 40.9196C76.2111 40.2834 76.2111 39.5412 76 38.9049C75.1555 36.8903 72.622 36.3601 70.8274 36.148ZM69.8773 43.2524L63.7546 44.2067L69.5606 44.8429C69.9829 46.2214 70.4051 48.8723 67.9772 51.2051C67.9772 51.2051 67.9772 51.3111 68.0827 51.4172L63.2268 51.9474L68.2939 52.4775C68.3994 53.3258 68.3994 54.3862 67.766 55.3405L63.7546 56.5069L67.0271 56.4009C67.0271 57.0371 66.3937 59.688 57.1041 61.3845C46.4422 63.2932 16.5678 69.7614 21.2126 46.3275C25.8573 22.8935 50.8759 12.608 55.9429 12.608V35.1937C53.1983 35.6178 50.7703 36.148 48.5535 36.5722C46.1255 36.254 40.5307 35.6178 37.4693 36.4661L44.2254 37.6325C38.1027 39.3291 35.4636 40.8136 35.4636 40.8136C42.5364 38.7989 50.4536 37.5265 54.1484 36.9963C60.4822 36.254 67.3438 36.7842 68.7161 38.2687C71.3552 40.8136 70.5107 42.5102 69.8773 43.2524Z" fill="black"/>
</g>
</svg>
