<svg width="90" height="90" viewBox="0 0 90 90" fill="none" xmlns="http://www.w3.org/2000/svg">
<mask id="path-1-inside-1_2560_1544" fill="white">
<path d="M7.45124 66.454V66.4553C8.36346 68.0622 9.58537 69.4722 11.0462 70.6037C12.5071 71.7352 14.1779 72.5657 15.9619 73.0471C17.7434 73.5378 19.6045 73.6705 21.4377 73.4376C23.2708 73.2046 25.0396 72.6107 26.6418 71.69L30.9375 69.236V74.181C30.9413 77.9094 32.4241 81.4839 35.0606 84.1201C37.697 86.7563 41.2717 88.2388 45 88.2421C48.7284 88.2388 52.3031 86.7563 54.9395 84.1201C57.576 81.4839 59.0588 77.9094 59.0625 74.181V69.236L63.3576 71.6893C65.4742 72.9054 67.8723 73.5464 70.3134 73.5484C71.5715 73.5474 72.8238 73.3786 74.0372 73.0464C75.8212 72.565 77.492 71.7345 78.9529 70.603C80.4138 69.4715 81.6357 68.0615 82.548 66.4546V66.4533C84.3943 63.2137 84.8802 59.3739 83.8989 55.7764C82.9177 52.179 80.5495 49.1177 77.3139 47.2642L73.3511 44.9999L77.3146 42.7352C80.5535 40.8844 82.9245 37.8227 83.9061 34.2237C84.8876 30.6247 84.3992 26.7833 82.5484 23.5443C81.632 21.9406 80.4086 20.5331 78.9482 19.4021C77.4879 18.2711 75.819 17.4389 74.037 16.9529C70.438 15.9714 66.5965 16.4597 63.3576 18.3105L59.0625 20.7639V15.8188C59.0625 12.0892 57.581 8.51239 54.9437 5.87516C52.3065 3.23793 48.7297 1.75635 45 1.75635C41.2704 1.75635 37.6936 3.23793 35.0564 5.87516C32.4191 8.51239 30.9375 12.0892 30.9375 15.8188V20.7639L26.6425 18.3105C23.4036 16.4597 19.5621 15.9714 15.9631 16.9529C12.3642 17.9344 9.3025 20.3054 7.45168 23.5443C5.60086 26.7833 5.1125 30.6247 6.09403 34.2237C7.07556 37.8227 9.44657 40.8844 12.6855 42.7352L16.649 44.9999L12.6855 47.2647C9.44983 49.1182 7.08156 52.1795 6.10028 55.777C5.119 59.3745 5.60485 63.2143 7.45124 66.454ZM56.9532 74.181C56.9501 77.3501 55.6897 80.3885 53.4487 82.6293C51.2077 84.87 48.1691 86.1301 45 86.1328C41.831 86.1301 38.7924 84.87 36.5514 82.6293C34.3104 80.3885 33.05 77.3501 33.0469 74.181V68.0306L45 61.1992L56.9532 68.0306V74.181ZM33.0469 38.0613L45 31.2299L56.9532 38.0613V51.9386L45 58.7699L33.0469 51.9386V38.0613ZM30.9375 50.7332L20.9034 44.9999L30.9375 39.2667V50.7332ZM33.0469 35.632V24.3984L42.877 30.0151L33.0469 35.632ZM47.1231 30.0153L56.9532 24.3984V35.6319L47.1231 30.0153ZM59.0625 39.2667L69.0967 44.9999L59.0625 50.7332V39.2667ZM56.9532 54.3679V65.6015L47.1231 59.9848L56.9532 54.3679ZM42.877 59.9846L33.0469 65.6015V54.3679L42.877 59.9846ZM76.2682 49.0956C79.0188 50.6712 81.032 53.2736 81.8661 56.3318C82.7003 59.39 82.2871 62.6542 80.7174 65.4081V65.4094C79.1428 68.161 76.5404 70.1752 73.4818 71.0094C70.4232 71.8436 67.1585 71.4297 64.4049 69.8586L59.0625 66.8067V53.1627L71.2238 46.2146L76.2682 49.0956ZM64.404 20.142C67.1573 18.5687 70.4227 18.1536 73.482 18.988C76.5413 19.8224 79.1439 21.8379 80.7171 24.5911C82.2904 27.3444 82.7055 30.6098 81.8711 33.6691C81.0368 36.7284 79.0213 39.331 76.268 40.9042L71.2231 43.7858L59.0625 36.8372V23.1932L64.404 20.142ZM33.0469 15.8188C33.0469 12.6487 34.3063 9.60836 36.5479 7.36671C38.7896 5.12507 41.8299 3.86572 45 3.86572C48.1702 3.86572 51.2105 5.12507 53.4522 7.36671C55.6938 9.60836 56.9532 12.6487 56.9532 15.8188V21.9693L45 28.8006L33.0469 21.9693V15.8188ZM13.7319 40.9042C10.9882 39.3261 8.98213 36.7245 8.15362 33.6696C7.32511 30.6148 7.74174 27.356 9.31216 24.6079C10.8826 21.8597 13.4786 19.8464 16.5311 19.0094C19.5837 18.1723 22.8435 18.5798 25.5961 20.1425L30.9375 23.1932V36.8372L18.7763 43.7853L13.7319 40.9042ZM18.7768 46.2151L30.9375 53.1627V66.8067L25.5961 69.8579C22.842 71.4271 19.578 71.8399 16.52 71.0058C13.4619 70.1718 10.8595 68.1589 9.28358 65.4087L9.28253 65.4074C7.71311 62.6534 7.30026 59.3893 8.13457 56.3313C8.96888 53.2732 10.9822 50.6711 13.7328 49.0956L18.7768 46.2151Z"/>
</mask>
<path d="M7.45124 66.454V66.4553C8.36346 68.0622 9.58537 69.4722 11.0462 70.6037C12.5071 71.7352 14.1779 72.5657 15.9619 73.0471C17.7434 73.5378 19.6045 73.6705 21.4377 73.4376C23.2708 73.2046 25.0396 72.6107 26.6418 71.69L30.9375 69.236V74.181C30.9413 77.9094 32.4241 81.4839 35.0606 84.1201C37.697 86.7563 41.2717 88.2388 45 88.2421C48.7284 88.2388 52.3031 86.7563 54.9395 84.1201C57.576 81.4839 59.0588 77.9094 59.0625 74.181V69.236L63.3576 71.6893C65.4742 72.9054 67.8723 73.5464 70.3134 73.5484C71.5715 73.5474 72.8238 73.3786 74.0372 73.0464C75.8212 72.565 77.492 71.7345 78.9529 70.603C80.4138 69.4715 81.6357 68.0615 82.548 66.4546V66.4533C84.3943 63.2137 84.8802 59.3739 83.8989 55.7764C82.9177 52.179 80.5495 49.1177 77.3139 47.2642L73.3511 44.9999L77.3146 42.7352C80.5535 40.8844 82.9245 37.8227 83.9061 34.2237C84.8876 30.6247 84.3992 26.7833 82.5484 23.5443C81.632 21.9406 80.4086 20.5331 78.9482 19.4021C77.4879 18.2711 75.819 17.4389 74.037 16.9529C70.438 15.9714 66.5965 16.4597 63.3576 18.3105L59.0625 20.7639V15.8188C59.0625 12.0892 57.581 8.51239 54.9437 5.87516C52.3065 3.23793 48.7297 1.75635 45 1.75635C41.2704 1.75635 37.6936 3.23793 35.0564 5.87516C32.4191 8.51239 30.9375 12.0892 30.9375 15.8188V20.7639L26.6425 18.3105C23.4036 16.4597 19.5621 15.9714 15.9631 16.9529C12.3642 17.9344 9.3025 20.3054 7.45168 23.5443C5.60086 26.7833 5.1125 30.6247 6.09403 34.2237C7.07556 37.8227 9.44657 40.8844 12.6855 42.7352L16.649 44.9999L12.6855 47.2647C9.44983 49.1182 7.08156 52.1795 6.10028 55.777C5.119 59.3745 5.60485 63.2143 7.45124 66.454ZM56.9532 74.181C56.9501 77.3501 55.6897 80.3885 53.4487 82.6293C51.2077 84.87 48.1691 86.1301 45 86.1328C41.831 86.1301 38.7924 84.87 36.5514 82.6293C34.3104 80.3885 33.05 77.3501 33.0469 74.181V68.0306L45 61.1992L56.9532 68.0306V74.181ZM33.0469 38.0613L45 31.2299L56.9532 38.0613V51.9386L45 58.7699L33.0469 51.9386V38.0613ZM30.9375 50.7332L20.9034 44.9999L30.9375 39.2667V50.7332ZM33.0469 35.632V24.3984L42.877 30.0151L33.0469 35.632ZM47.1231 30.0153L56.9532 24.3984V35.6319L47.1231 30.0153ZM59.0625 39.2667L69.0967 44.9999L59.0625 50.7332V39.2667ZM56.9532 54.3679V65.6015L47.1231 59.9848L56.9532 54.3679ZM42.877 59.9846L33.0469 65.6015V54.3679L42.877 59.9846ZM76.2682 49.0956C79.0188 50.6712 81.032 53.2736 81.8661 56.3318C82.7003 59.39 82.2871 62.6542 80.7174 65.4081V65.4094C79.1428 68.161 76.5404 70.1752 73.4818 71.0094C70.4232 71.8436 67.1585 71.4297 64.4049 69.8586L59.0625 66.8067V53.1627L71.2238 46.2146L76.2682 49.0956ZM64.404 20.142C67.1573 18.5687 70.4227 18.1536 73.482 18.988C76.5413 19.8224 79.1439 21.8379 80.7171 24.5911C82.2904 27.3444 82.7055 30.6098 81.8711 33.6691C81.0368 36.7284 79.0213 39.331 76.268 40.9042L71.2231 43.7858L59.0625 36.8372V23.1932L64.404 20.142ZM33.0469 15.8188C33.0469 12.6487 34.3063 9.60836 36.5479 7.36671C38.7896 5.12507 41.8299 3.86572 45 3.86572C48.1702 3.86572 51.2105 5.12507 53.4522 7.36671C55.6938 9.60836 56.9532 12.6487 56.9532 15.8188V21.9693L45 28.8006L33.0469 21.9693V15.8188ZM13.7319 40.9042C10.9882 39.3261 8.98213 36.7245 8.15362 33.6696C7.32511 30.6148 7.74174 27.356 9.31216 24.6079C10.8826 21.8597 13.4786 19.8464 16.5311 19.0094C19.5837 18.1723 22.8435 18.5798 25.5961 20.1425L30.9375 23.1932V36.8372L18.7763 43.7853L13.7319 40.9042ZM18.7768 46.2151L30.9375 53.1627V66.8067L25.5961 69.8579C22.842 71.4271 19.578 71.8399 16.52 71.0058C13.4619 70.1718 10.8595 68.1589 9.28358 65.4087L9.28253 65.4074C7.71311 62.6534 7.30026 59.3893 8.13457 56.3313C8.96888 53.2732 10.9822 50.6711 13.7328 49.0956L18.7768 46.2151Z" fill="#0C0C25" stroke="white" stroke-width="0.8" mask="url(#path-1-inside-1_2560_1544)"/>
<path d="M45.0001 41.7852H44.8001V41.792C44.0208 41.8413 43.2834 42.1727 42.7281 42.7281C42.1255 43.3307 41.7865 44.1477 41.7856 44.9998V45.0001C41.7857 45.6358 41.9743 46.2573 42.3275 46.7859C42.6808 47.3144 43.1828 47.7264 43.7702 47.9696C44.3576 48.2129 45.0039 48.2765 45.6274 48.1524C46.2509 48.0283 46.8237 47.7221 47.2732 47.2726C47.7227 46.823 48.0288 46.2502 48.1528 45.6267C48.2768 45.0032 48.2131 44.3569 47.9698 43.7695C47.7265 43.1822 47.3145 42.6802 46.7859 42.327C46.2573 41.9738 45.6358 41.7852 45.0001 41.7852ZM47.7356 49.0941C46.926 49.6351 45.9741 49.9239 45.0003 49.9239C43.6948 49.9224 42.4432 49.4032 41.5201 48.4801C40.597 47.557 40.0777 46.3054 40.0762 45C40.0762 44.0262 40.365 43.0742 40.906 42.2645C41.4471 41.4548 42.2161 40.8237 43.1158 40.451C44.0155 40.0784 45.0055 39.9808 45.9607 40.1708C46.9158 40.3608 47.7931 40.8298 48.4818 41.5184C49.1704 42.207 49.6393 43.0843 49.8293 44.0395C50.0193 44.9946 49.9218 45.9846 49.5491 46.8843C49.1764 47.7841 48.5453 48.5531 47.7356 49.0941Z" fill="#0C0C25" stroke="white" stroke-width="0.4"/>
</svg>
