<svg width="85" height="85" viewBox="0 0 85 85" fill="none" xmlns="http://www.w3.org/2000/svg">
<path d="M84.7957 42.407L84.7957 42.4161L84.7966 42.4251C84.7988 42.4496 84.8 42.4746 84.8 42.5C84.8 42.5254 84.7988 42.5504 84.7966 42.5748L84.7957 42.5839L84.7957 42.593C84.7449 65.8739 65.7898 84.8 42.4979 84.8C19.1749 84.8 0.2 65.8242 0.2 42.5C0.2 19.1758 19.1749 0.2 42.4979 0.2H42.5H42.502C65.7916 0.202242 84.7449 19.1273 84.7957 42.407ZM83.1346 43.5423L83.14 43.3319L82.9296 43.3373C61.3421 43.8838 43.8818 61.3449 43.3354 82.9334L43.33 83.1438L43.5404 83.1384C65.1279 82.5919 82.5882 65.1308 83.1346 43.5423ZM2.06626 43.3373L1.85594 43.3319L1.86127 43.5423C2.40794 65.1308 19.868 82.5919 41.4557 83.1384L41.6661 83.1438L41.6607 82.9334C41.1141 61.3451 23.654 43.884 2.06626 43.3373ZM10.276 42.3048L10.276 42.6952C26.1846 46.2589 38.739 58.8139 42.3028 74.7235H42.6931C46.2569 58.8139 58.8113 46.2589 74.7201 42.6952L74.7201 42.3048C58.8113 38.7409 46.2569 26.1859 42.6933 10.2765L42.303 10.2765C38.7392 26.1859 26.1848 38.7409 10.276 42.3048ZM43.5404 1.86137L43.33 1.85604L43.3354 2.06636C43.8818 23.6551 61.3421 41.116 82.9296 41.6627L83.14 41.6681L83.1346 41.4577C82.5882 19.869 65.1279 2.40806 43.5404 1.86137ZM41.6609 2.06637L41.6663 1.85604L41.4559 1.86137C19.8682 2.40806 2.40814 19.869 1.86127 41.4577L1.85594 41.6681L2.06626 41.6627C23.654 41.116 41.1141 23.6551 41.6609 2.06637Z" fill="black" stroke="white" stroke-width="0.4"/>
</svg>
