<svg width="87" height="87" viewBox="0 0 87 87" fill="none" xmlns="http://www.w3.org/2000/svg">
<path d="M30.32 73.9919L30.2611 73.9312H30.1765H13.3966C12.9246 73.9312 12.5419 73.5485 12.5419 73.0765V57.0655V56.6032V56.603H12.3421L12.4789 56.4574L0.469528 45.1765C0.469519 45.1765 0.469511 45.1765 0.469502 45.1765C0.304229 45.0212 0.207403 44.8066 0.200426 44.5801L0.200422 44.58C0.193302 44.3534 0.276587 44.1334 0.431887 43.9681C0.431897 43.9681 0.431906 43.9681 0.431916 43.9681L12.112 31.543L12.1687 31.4827L12.1662 31.3999L11.6459 14.3579L11.6459 14.3579C11.6389 14.1315 11.7224 13.9114 11.8777 13.7462C12.033 13.5811 12.2475 13.4844 12.474 13.4776L12.4741 13.4776L30.3226 12.933L30.4001 12.9307L30.4558 12.8766L43.2661 0.441371C43.6049 0.112713 44.1456 0.120686 44.4746 0.45918L56.164 12.4926L56.2229 12.5533H56.3075H73.0874C73.5594 12.5533 73.9421 12.936 73.9421 13.4079V29.8813V29.9678L74.0051 30.0271L86.0145 41.308C86.1798 41.4633 86.2766 41.6778 86.2836 41.9044L86.2836 41.9045C86.2907 42.131 86.2074 42.3511 86.0521 42.5164L74.3722 54.9413L74.3155 55.0016L74.318 55.0844L74.8383 72.1264C74.8453 72.3528 74.7618 72.5729 74.6065 72.7381C74.4512 72.9032 74.2367 72.9999 74.0102 73.0067L56.1616 73.5513L56.0841 73.5536L56.0284 73.6077L43.218 86.043L43.3573 86.1865L43.218 86.043C43.0519 86.2043 42.8376 86.2844 42.6227 86.2844C42.3996 86.2844 42.1773 86.1978 42.0096 86.0253L30.32 73.9919ZM86.1978 42.6534C86.3895 42.4495 86.4923 42.1779 86.4835 41.8982L86.1978 42.6534ZM14.2513 72.0218V72.2218H14.4513H42.1875H42.3875V72.0218V45.9039V45.3992L42.0418 45.7669L23.4271 65.5689L23.5728 65.7058L23.427 65.5689C23.2588 65.7479 23.0321 65.8382 22.8041 65.8382C22.594 65.8382 22.3841 65.7615 22.2191 65.6065L22.0822 65.7523L22.2191 65.6065L14.5883 58.4386L14.2513 58.1222V58.5844V72.0218ZM42.5012 84.0779L42.8447 84.4315V84.023L62.6817 64.7671L62.8253 64.6277L62.6859 64.4842L44.4403 45.7022L44.0969 45.3486V45.8415V73.0765C44.0969 73.5485 43.7142 73.9312 43.2422 73.9312H33.1174H32.6442L32.9739 74.2706L42.5012 84.0779ZM58.2726 71.7153L58.4119 71.8517L58.4963 71.7697L72.9038 71.33L73.1037 71.3239L73.0976 71.124L72.2516 43.4121L72.2455 43.2122L72.0456 43.2183L45.6596 44.0234L45.2061 44.0372L45.5222 44.3626L64.647 64.0499L64.7905 63.9106L64.6471 64.05C64.8051 64.2126 64.8919 64.4314 64.8886 64.6581C64.8854 64.8849 64.7921 65.1009 64.6294 65.2587L64.7687 65.4023L64.6294 65.2588L58.329 71.3746L57.9367 71.3866L58.2724 71.7151L58.2726 71.7153ZM74.2271 52.1016L74.2418 52.5844L74.5727 52.2324L84.0799 42.1187L84.0801 42.1186L84.0843 42.1143L84.226 41.9726L84.0756 41.8314L63.8634 22.8452L63.7177 22.7084L63.5808 22.854L45.6078 41.9732L45.2773 42.3248L45.7597 42.3101L73.0478 41.4776L73.0484 41.4776C73.519 41.4617 73.9137 41.8334 73.9281 42.3058L74.2271 52.1016ZM72.1716 14.3184L71.8329 13.992V14.2626H44.2969H44.0969V14.4626V40.5804V41.0851L44.4426 40.7174L63.0573 20.9154L63.0574 20.9154C63.3804 20.5714 63.9211 20.5544 64.265 20.8778L64.2651 20.8778L71.8959 28.0456L72.2329 28.3621V27.8999V14.6626H72.5289L72.1718 14.3186L72.1716 14.3184ZM43.9831 2.40653L43.8438 2.26313L43.7004 2.40238L23.8026 21.7174L23.6591 21.8568L23.7985 22.0003L42.044 40.7823L42.3875 41.1359V40.643V13.4079C42.3875 12.936 42.7701 12.5533 43.2422 12.5533H53.3668H53.8399L53.5103 12.2139L43.9831 2.40653ZM28.2126 14.7699L28.0732 14.6321L27.9881 14.7147L13.5806 15.1545L13.3806 15.1606L13.3867 15.3605L14.2328 43.0724L14.2389 43.2723L14.4388 43.2662L40.8248 42.4611L41.2783 42.4473L40.9621 42.1218L21.8373 22.4345L21.8373 22.4345C21.6792 22.2719 21.5924 22.0531 21.5957 21.8264C21.599 21.5996 21.6923 21.3835 21.8549 21.2257L21.855 21.2257L28.1554 15.1098L28.5442 15.098L28.2127 14.7701L28.2126 14.7699ZM12.2573 34.3829L12.2425 33.9L11.9116 34.252L2.40011 44.37L2.26307 44.5158L2.4089 44.6528L22.6209 63.6392L22.7666 63.7761L22.9036 63.6305L40.8765 44.5113L41.207 44.1596L40.7247 44.1744L13.4366 45.0068L13.433 45.007C13.4278 45.0073 13.4218 45.0073 13.41 45.0073C12.9501 45.0073 12.5704 44.6416 12.5563 44.1787L12.2573 34.3829Z" fill="black" stroke="white" stroke-width="0.4"/>
</svg>
