<svg xmlns="http://www.w3.org/2000/svg" xmlns:xlink="http://www.w3.org/1999/xlink" width="156" zoomAndPan="magnify" viewBox="0 0 116.88 116.999995" height="156" preserveAspectRatio="xMidYMid meet" version="1.0"><defs><g/><clipPath id="a225c9a3e5"><path d="M 0 0.0585938 L 116.761719 0.0585938 L 116.761719 116.9375 L 0 116.9375 Z M 0 0.0585938 " clip-rule="nonzero"/></clipPath><clipPath id="8ab012c8b5"><path d="M 66 0.0585938 L 76 0.0585938 L 76 12 L 66 12 Z M 66 0.0585938 " clip-rule="nonzero"/></clipPath></defs><g clip-path="url(#a225c9a3e5)"><path fill="#ffffff" d="M 0 0.0585938 L 116.878906 0.0585938 L 116.878906 116.941406 L 0 116.941406 Z M 0 0.0585938 " fill-opacity="1" fill-rule="nonzero"/><path fill="#ffffff" d="M 0 0.0585938 L 116.878906 0.0585938 L 116.878906 116.941406 L 0 116.941406 Z M 0 0.0585938 " fill-opacity="1" fill-rule="nonzero"/></g><g fill="#000000" fill-opacity="1"><g transform="translate(11.62643, 35.801016)"><g/></g></g><g fill="#000000" fill-opacity="1"><g transform="translate(13.247879, 33.196435)"><g/></g></g><g fill="#000000" fill-opacity="1"><g transform="translate(15.016466, 30.689433)"><g/></g></g><g fill="#000000" fill-opacity="1"><g transform="translate(16.917684, 28.292259)"><g><path d="M 1.234375 -1.265625 C 1.066406 -1.078125 0.882812 -0.976562 0.6875 -0.96875 C 0.488281 -0.957031 0.304688 -1.03125 0.140625 -1.1875 C -0.0351562 -1.34375 -0.128906 -1.519531 -0.140625 -1.71875 C -0.160156 -1.925781 -0.0859375 -2.125 0.078125 -2.3125 C 0.242188 -2.5 0.429688 -2.597656 0.640625 -2.609375 C 0.847656 -2.628906 1.035156 -2.5625 1.203125 -2.40625 C 1.367188 -2.25 1.457031 -2.066406 1.46875 -1.859375 C 1.476562 -1.648438 1.398438 -1.453125 1.234375 -1.265625 Z M 1.234375 -1.265625 "/></g></g></g><g fill="#000000" fill-opacity="1"><g transform="translate(19.126995, 25.837137)"><g/></g></g><g fill="#000000" fill-opacity="1"><g transform="translate(20.984761, 23.677557)"><g><path d="M 2.03125 -1.5625 L 1.15625 -0.890625 L -4.734375 -8.5 L -3.640625 -9.34375 L 4.5625 -6.40625 L 4.6875 -6.53125 L 0.203125 -12.328125 L 1.0625 -13 L 6.953125 -5.390625 L 6.03125 -4.671875 L -2.671875 -7.890625 L -2.765625 -7.765625 Z M 2.03125 -1.5625 "/></g></g></g><g fill="#000000" fill-opacity="1"><g transform="translate(28.807692, 17.83666)"><g><path d="M -2.90625 -8.375 C -3.09375 -8.257812 -3.28125 -8.222656 -3.46875 -8.265625 C -3.664062 -8.316406 -3.820312 -8.4375 -3.9375 -8.625 C -4.050781 -8.8125 -4.082031 -9 -4.03125 -9.1875 C -3.976562 -9.382812 -3.859375 -9.539062 -3.671875 -9.65625 C -3.472656 -9.769531 -3.273438 -9.804688 -3.078125 -9.765625 C -2.878906 -9.722656 -2.722656 -9.609375 -2.609375 -9.421875 C -2.492188 -9.234375 -2.460938 -9.039062 -2.515625 -8.84375 C -2.578125 -8.644531 -2.707031 -8.488281 -2.90625 -8.375 Z M 1.09375 -0.65625 L -2.625 -6.890625 L -1.703125 -7.4375 L 2.015625 -1.203125 Z M 1.09375 -0.65625 "/></g></g></g><g fill="#000000" fill-opacity="1"><g transform="translate(31.594473, 16.112181)"><g><path d="M 3.890625 -3.203125 L 4.53125 -2.671875 C 4.457031 -2.441406 4.3125 -2.222656 4.09375 -2.015625 C 3.882812 -1.816406 3.640625 -1.644531 3.359375 -1.5 C 2.109375 -0.882812 1.171875 -1.207031 0.546875 -2.46875 L -1.40625 -6.4375 L -2.53125 -5.875 L -2.921875 -6.65625 L -1.796875 -7.21875 L -2.46875 -8.59375 L -1.59375 -9.25 L -0.828125 -7.703125 L 1.265625 -8.734375 L 1.65625 -7.953125 L -0.4375 -6.921875 L 1.46875 -3.046875 C 1.84375 -2.304688 2.351562 -2.09375 3 -2.40625 C 3.351562 -2.582031 3.609375 -2.832031 3.765625 -3.15625 Z M 3.890625 -3.203125 "/></g></g></g><g fill="#000000" fill-opacity="1"><g transform="translate(36.066433, 13.77422)"><g><path d="M 1.1875 -0.421875 L -2.1875 -10.015625 L -1.15625 -10.375 L 0.15625 -6.65625 L 0.265625 -6.671875 C 0.492188 -7.597656 1.070312 -8.222656 2 -8.546875 C 2.820312 -8.835938 3.488281 -8.835938 4 -8.546875 C 4.519531 -8.253906 4.9375 -7.671875 5.25 -6.796875 L 6.796875 -2.390625 L 5.796875 -2.03125 L 4.265625 -6.40625 C 4.109375 -6.832031 3.929688 -7.148438 3.734375 -7.359375 C 3.535156 -7.578125 3.304688 -7.703125 3.046875 -7.734375 C 2.796875 -7.773438 2.488281 -7.734375 2.125 -7.609375 C 1.5 -7.390625 1.070312 -7.007812 0.84375 -6.46875 C 0.613281 -5.9375 0.660156 -5.210938 0.984375 -4.296875 L 2.21875 -0.78125 Z M 1.1875 -0.421875 "/></g></g></g><g fill="#000000" fill-opacity="1"><g transform="translate(43.414401, 11.171881)"><g><path d="M 6.109375 -4.6875 L 1.21875 -3.703125 C 1.425781 -2.835938 1.765625 -2.242188 2.234375 -1.921875 C 2.703125 -1.597656 3.273438 -1.503906 3.953125 -1.640625 C 4.453125 -1.734375 4.835938 -1.898438 5.109375 -2.140625 C 5.390625 -2.378906 5.570312 -2.71875 5.65625 -3.15625 L 5.796875 -3.171875 L 6.578125 -2.890625 C 6.472656 -2.335938 6.222656 -1.867188 5.828125 -1.484375 C 5.429688 -1.097656 4.867188 -0.832031 4.140625 -0.6875 C 3.441406 -0.539062 2.816406 -0.550781 2.265625 -0.71875 C 1.710938 -0.894531 1.25 -1.234375 0.875 -1.734375 C 0.5 -2.234375 0.226562 -2.890625 0.0625 -3.703125 C -0.09375 -4.515625 -0.0859375 -5.226562 0.078125 -5.84375 C 0.253906 -6.457031 0.554688 -6.953125 0.984375 -7.328125 C 1.421875 -7.703125 1.953125 -7.953125 2.578125 -8.078125 C 3.492188 -8.253906 4.257812 -8.132812 4.875 -7.71875 C 5.488281 -7.3125 5.894531 -6.601562 6.09375 -5.59375 C 6.175781 -5.1875 6.222656 -4.921875 6.234375 -4.796875 Z M 5.0625 -5.390625 C 4.90625 -6.128906 4.632812 -6.640625 4.25 -6.921875 C 3.863281 -7.203125 3.367188 -7.285156 2.765625 -7.171875 C 2.140625 -7.046875 1.679688 -6.773438 1.390625 -6.359375 C 1.109375 -5.941406 1.003906 -5.351562 1.078125 -4.59375 Z M 5.0625 -5.390625 "/></g></g></g><g fill="#000000" fill-opacity="1"><g transform="translate(50.546228, 9.778136)"><g><path d="M 1.265625 -0.109375 L 0.671875 -7.34375 L 1.6875 -7.421875 L 1.78125 -6.296875 L 1.90625 -6.28125 C 2.1875 -7.113281 2.789062 -7.570312 3.71875 -7.65625 C 4.21875 -7.6875 4.59375 -7.628906 4.84375 -7.484375 L 4.65625 -6.5625 L 4.515625 -6.515625 C 4.234375 -6.628906 3.929688 -6.675781 3.609375 -6.65625 C 3.023438 -6.601562 2.597656 -6.347656 2.328125 -5.890625 C 2.066406 -5.429688 1.972656 -4.710938 2.046875 -3.734375 L 2.34375 -0.1875 Z M 1.265625 -0.109375 "/></g></g></g><g fill="#000000" fill-opacity="1"><g transform="translate(55.820455, 9.380192)"><g/></g></g><g fill="#000000" fill-opacity="1"><g transform="translate(58.888452, 9.361371)"><g/></g></g><g fill="#000000" fill-opacity="1"><g transform="translate(61.952447, 9.51905)"><g/></g></g><g clip-path="url(#8ab012c8b5)"><g fill="#000000" fill-opacity="1"><g transform="translate(64.798405, 9.602502)"><g><path d="M 2.5 0.578125 L 1.421875 0.328125 L 3.609375 -9.046875 L 4.953125 -8.734375 L 7.84375 -0.484375 L 8.015625 -0.484375 L 9.6875 -7.625 L 10.75 -7.375 L 8.5625 2 L 7.421875 1.734375 L 4.4375 -7.046875 L 4.28125 -7.0625 Z M 2.5 0.578125 "/></g></g></g></g><g fill="#000000" fill-opacity="1"><g transform="translate(74.15196, 11.812741)"><g><path d="M 3.8125 1.71875 C 3.175781 1.457031 2.675781 1.097656 2.3125 0.640625 C 1.957031 0.179688 1.757812 -0.359375 1.71875 -0.984375 C 1.675781 -1.617188 1.8125 -2.304688 2.125 -3.046875 C 2.425781 -3.796875 2.8125 -4.375 3.28125 -4.78125 C 3.75 -5.195312 4.273438 -5.441406 4.859375 -5.515625 C 5.441406 -5.597656 6.050781 -5.507812 6.6875 -5.25 C 7.3125 -4.988281 7.800781 -4.625 8.15625 -4.15625 C 8.507812 -3.695312 8.707031 -3.15625 8.75 -2.53125 C 8.789062 -1.90625 8.660156 -1.21875 8.359375 -0.46875 C 8.046875 0.269531 7.65625 0.847656 7.1875 1.265625 C 6.71875 1.679688 6.191406 1.925781 5.609375 2 C 5.035156 2.070312 4.4375 1.976562 3.8125 1.71875 Z M 4.171875 0.828125 C 4.835938 1.097656 5.429688 1.097656 5.953125 0.828125 C 6.484375 0.554688 6.9375 -0.0195312 7.3125 -0.90625 C 7.675781 -1.789062 7.765625 -2.519531 7.578125 -3.09375 C 7.398438 -3.664062 6.976562 -4.085938 6.3125 -4.359375 C 5.632812 -4.640625 5.03125 -4.640625 4.5 -4.359375 C 3.976562 -4.078125 3.535156 -3.492188 3.171875 -2.609375 C 2.796875 -1.722656 2.695312 -1 2.875 -0.4375 C 3.0625 0.125 3.492188 0.546875 4.171875 0.828125 Z M 4.171875 0.828125 "/></g></g></g><g fill="#000000" fill-opacity="1"><g transform="translate(81.422501, 14.920841)"><g><path d="M 1.515625 0.90625 C 1.296875 0.78125 1.160156 0.617188 1.109375 0.421875 C 1.054688 0.234375 1.082031 0.0351562 1.1875 -0.171875 C 1.300781 -0.367188 1.453125 -0.5 1.640625 -0.5625 C 1.828125 -0.625 2.03125 -0.59375 2.25 -0.46875 C 2.476562 -0.34375 2.625 -0.1875 2.6875 0 C 2.75 0.195312 2.726562 0.398438 2.625 0.609375 C 2.507812 0.804688 2.351562 0.929688 2.15625 0.984375 C 1.957031 1.046875 1.742188 1.019531 1.515625 0.90625 Z M 1.515625 0.90625 "/></g></g></g><g fill="#000000" fill-opacity="1"><g transform="translate(84.331118, 16.485713)"><g/></g></g><g fill="#000000" fill-opacity="1"><g transform="translate(86.943212, 18.095046)"><g/></g></g><g fill="#000000" fill-opacity="1"><g transform="translate(89.399606, 19.607235)"><g><path d="M 10.703125 0.375 L 10.125 1.03125 L 8.9375 -0.015625 L 7.234375 1.375 L 8.421875 2.40625 L 7.84375 3.0625 L 6.546875 1.921875 L 4.3125 3.765625 L 3.578125 3.125 L 5.8125 1.296875 L 4.140625 -0.171875 L 1.921875 1.671875 L 1.171875 1.03125 L 3.421875 -0.8125 L 2.328125 -1.75 L 2.90625 -2.40625 L 4.109375 -1.359375 L 5.796875 -2.75 L 4.609375 -3.796875 L 5.1875 -4.453125 L 6.5 -3.296875 L 8.734375 -5.15625 L 9.46875 -4.5 L 7.234375 -2.671875 L 8.890625 -1.21875 L 11.109375 -3.0625 L 11.859375 -2.421875 L 9.625 -0.5625 Z M 4.84375 -0.71875 L 6.5 0.71875 L 8.1875 -0.65625 L 6.53125 -2.109375 Z M 4.84375 -0.71875 "/></g></g></g><g fill="#000000" fill-opacity="1"><g transform="translate(95.669369, 25.115486)"><g><path d="M 0.453125 0.515625 L 1.15625 -0.09375 L 2.875 1.890625 L 8.453125 -2.921875 L 8.359375 -3.046875 C 7.921875 -3.234375 7.554688 -3.410156 7.265625 -3.578125 C 6.972656 -3.753906 6.628906 -4 6.234375 -4.3125 L 7.015625 -4.984375 C 7.410156 -4.679688 7.835938 -4.40625 8.296875 -4.15625 C 8.753906 -3.90625 9.195312 -3.710938 9.625 -3.578125 L 10.171875 -2.953125 L 3.59375 2.734375 L 5.125 4.515625 L 4.421875 5.125 Z M 0.453125 0.515625 "/></g></g></g><g fill="#000000" fill-opacity="1"><g transform="translate(100.058633, 30.309083)"><g/></g></g><g fill="#000000" fill-opacity="1"><g transform="translate(101.847894, 32.790945)"><g><path d="M 0.890625 1.53125 C 0.753906 1.3125 0.707031 1.101562 0.75 0.90625 C 0.789062 0.71875 0.910156 0.5625 1.109375 0.4375 C 1.304688 0.3125 1.5 0.269531 1.6875 0.3125 C 1.882812 0.351562 2.050781 0.484375 2.1875 0.703125 C 2.320312 0.921875 2.367188 1.128906 2.328125 1.328125 C 2.296875 1.535156 2.179688 1.703125 1.984375 1.828125 C 1.785156 1.941406 1.585938 1.972656 1.390625 1.921875 C 1.191406 1.867188 1.023438 1.738281 0.890625 1.53125 Z M 0.890625 1.53125 "/></g></g></g><g fill="#000000" fill-opacity="1"><g transform="translate(7.175299, 35.323622)"><g><path d="M -0.875 2.390625 L -0.5 1.359375 L 8.5 4.65625 L 8.03125 5.953125 L -0.46875 7.84375 L -0.484375 8 L 6.359375 10.5 L 5.984375 11.53125 L -3.015625 8.234375 L -2.609375 7.125 L 6.421875 5.25 L 6.453125 5.078125 Z M -0.875 2.390625 "/></g></g></g><g fill="#000000" fill-opacity="1"><g transform="translate(3.544267, 45.690172)"><g><path d="M -0.84375 4.0625 C -0.726562 3.382812 -0.484375 2.820312 -0.109375 2.375 C 0.253906 1.925781 0.738281 1.613281 1.34375 1.4375 C 1.945312 1.269531 2.640625 1.253906 3.421875 1.390625 C 4.203125 1.523438 4.847656 1.773438 5.359375 2.140625 C 5.878906 2.503906 6.238281 2.957031 6.4375 3.5 C 6.632812 4.050781 6.675781 4.664062 6.5625 5.34375 C 6.445312 6.007812 6.203125 6.566406 5.828125 7.015625 C 5.460938 7.472656 4.972656 7.785156 4.359375 7.953125 C 3.753906 8.128906 3.0625 8.148438 2.28125 8.015625 C 1.5 7.878906 0.851562 7.628906 0.34375 7.265625 C -0.164062 6.898438 -0.519531 6.441406 -0.71875 5.890625 C -0.914062 5.335938 -0.957031 4.726562 -0.84375 4.0625 Z M 0.09375 4.234375 C -0.03125 4.941406 0.0976562 5.523438 0.484375 5.984375 C 0.867188 6.441406 1.53125 6.75 2.46875 6.90625 C 3.40625 7.070312 4.132812 7.003906 4.65625 6.703125 C 5.175781 6.398438 5.5 5.894531 5.625 5.1875 C 5.738281 4.476562 5.601562 3.894531 5.21875 3.4375 C 4.832031 2.976562 4.171875 2.664062 3.234375 2.5 C 2.296875 2.34375 1.566406 2.414062 1.046875 2.71875 C 0.523438 3.019531 0.207031 3.523438 0.09375 4.234375 Z M 0.09375 4.234375 "/></g></g></g><g fill="#000000" fill-opacity="1"><g transform="translate(2.157337, 54.455078)"><g><path d="M -0.046875 1.265625 L 7.1875 1.53125 L 7.15625 2.546875 L 6.03125 2.5 L 5.96875 2.640625 C 6.78125 3.003906 7.171875 3.648438 7.140625 4.578125 C 7.117188 5.078125 7.015625 5.441406 6.828125 5.671875 L 5.9375 5.375 L 5.921875 5.234375 C 6.066406 4.972656 6.144531 4.679688 6.15625 4.359375 C 6.175781 3.785156 5.972656 3.332031 5.546875 3 C 5.128906 2.675781 4.4375 2.492188 3.46875 2.453125 L -0.078125 2.328125 Z M -0.046875 1.265625 "/></g></g></g><g fill="#000000" fill-opacity="1"><g transform="translate(2.008193, 60.401274)"><g/></g></g><g fill="#000000" fill-opacity="1"><g transform="translate(2.195756, 63.956672)"><g/></g></g><g fill="#000000" fill-opacity="1"><g transform="translate(2.610515, 67.492766)"><g/></g></g><g fill="#000000" fill-opacity="1"><g transform="translate(3.15044, 71.261876)"><g><path d="M 2.53125 8.265625 L 2.1875 7.09375 L 4.4375 5.5 L 3.234375 1.578125 L 0.453125 1.5 L 0.109375 0.359375 L 10.265625 0.75 L 10.71875 2.234375 Z M 9.359375 1.75 L 4.234375 1.59375 L 5.25 4.890625 L 9.40625 1.890625 Z M 9.359375 1.75 "/></g></g></g><g fill="#000000" fill-opacity="1"><g transform="translate(6.042626, 80.664866)"><g><path d="M 1.6875 3.171875 L 1.046875 1.96875 L 6.609375 -2.984375 L 7.109375 -2.046875 L 2.46875 1.953125 L 2.53125 2.078125 L 8.609375 0.78125 L 9.125 1.765625 L 4.671875 6.09375 L 4.734375 6.21875 L 10.640625 4.609375 L 11.125 5.515625 L 3.90625 7.359375 L 3.265625 6.15625 L 7.453125 2.078125 L 7.390625 1.953125 Z M 1.6875 3.171875 "/></g></g></g><g fill="#000000" fill-opacity="1"><g transform="translate(11.513653, 90.535652)"><g><path d="M 1.734375 2.4375 C 1.296875 1.882812 1.097656 1.332031 1.140625 0.78125 C 1.191406 0.226562 1.488281 -0.253906 2.03125 -0.671875 C 2.363281 -0.941406 2.703125 -1.097656 3.046875 -1.140625 C 3.390625 -1.179688 3.742188 -1.109375 4.109375 -0.921875 C 4.484375 -0.742188 4.898438 -0.453125 5.359375 -0.046875 C 5.753906 0.304688 6.078125 0.554688 6.328125 0.703125 C 6.585938 0.859375 6.796875 0.929688 6.953125 0.921875 C 7.117188 0.910156 7.28125 0.84375 7.4375 0.71875 C 7.707031 0.519531 7.835938 0.273438 7.828125 -0.015625 C 7.828125 -0.304688 7.675781 -0.644531 7.375 -1.03125 C 7.09375 -1.394531 6.773438 -1.65625 6.421875 -1.8125 C 6.066406 -1.96875 5.660156 -2.046875 5.203125 -2.046875 L 5.125 -2.140625 L 5.390625 -3.03125 C 5.878906 -3.019531 6.363281 -2.894531 6.84375 -2.65625 C 7.320312 -2.425781 7.742188 -2.078125 8.109375 -1.609375 C 8.628906 -0.941406 8.863281 -0.332031 8.8125 0.21875 C 8.769531 0.769531 8.488281 1.242188 7.96875 1.640625 L 4.953125 4.015625 C 4.628906 4.265625 4.578125 4.523438 4.796875 4.796875 C 4.859375 4.890625 4.9375 4.960938 5.03125 5.015625 L 5.078125 5.109375 L 4.578125 5.671875 C 4.484375 5.640625 4.382812 5.578125 4.28125 5.484375 C 4.1875 5.398438 4.097656 5.304688 4.015625 5.203125 C 3.765625 4.890625 3.644531 4.597656 3.65625 4.328125 C 3.664062 4.066406 3.789062 3.804688 4.03125 3.546875 L 3.953125 3.4375 C 3.515625 3.5 3.113281 3.453125 2.75 3.296875 C 2.394531 3.148438 2.054688 2.863281 1.734375 2.4375 Z M 2.546875 2.09375 C 2.796875 2.414062 3.082031 2.632812 3.40625 2.75 C 3.738281 2.875 4.085938 2.894531 4.453125 2.8125 C 4.816406 2.726562 5.175781 2.550781 5.53125 2.28125 L 6.25 1.71875 L 6.1875 1.59375 C 5.988281 1.53125 5.789062 1.429688 5.59375 1.296875 C 5.394531 1.171875 5.144531 0.957031 4.84375 0.65625 C 4.53125 0.363281 4.25 0.15625 4 0.03125 C 3.757812 -0.0820312 3.535156 -0.125 3.328125 -0.09375 C 3.117188 -0.0703125 2.910156 0.0195312 2.703125 0.1875 C 2.359375 0.445312 2.175781 0.742188 2.15625 1.078125 C 2.144531 1.410156 2.273438 1.75 2.546875 2.09375 Z M 2.546875 2.09375 "/></g></g></g><g fill="#000000" fill-opacity="1"><g transform="translate(16.525668, 96.794576)"><g><path d="M 0.90625 0.890625 L 6 -4.25 L 6.71875 -3.53125 L 5.921875 -2.734375 L 5.984375 -2.609375 C 6.796875 -2.960938 7.53125 -2.8125 8.1875 -2.15625 C 8.539062 -1.800781 8.742188 -1.476562 8.796875 -1.1875 L 7.984375 -0.734375 L 7.859375 -0.8125 C 7.765625 -1.101562 7.601562 -1.359375 7.375 -1.578125 C 6.96875 -1.984375 6.5 -2.140625 5.96875 -2.046875 C 5.4375 -1.960938 4.832031 -1.570312 4.15625 -0.875 L 1.65625 1.640625 Z M 0.90625 0.890625 "/></g></g></g><g fill="#000000" fill-opacity="1"><g transform="translate(20.875146, 101.187799)"><g><path d="M 2.921875 2.359375 C 2.453125 2.003906 2.125 1.582031 1.9375 1.09375 C 1.75 0.601562 1.722656 0.0625 1.859375 -0.53125 C 1.992188 -1.125 2.304688 -1.75 2.796875 -2.40625 C 3.296875 -3.070312 3.816406 -3.554688 4.359375 -3.859375 C 4.910156 -4.160156 5.453125 -4.28125 5.984375 -4.21875 C 6.515625 -4.15625 7.023438 -3.945312 7.515625 -3.59375 C 7.898438 -3.300781 8.191406 -2.96875 8.390625 -2.59375 C 8.585938 -2.21875 8.675781 -1.78125 8.65625 -1.28125 L 8.796875 -1.21875 L 11.125 -4.34375 L 11.96875 -3.71875 L 5.90625 4.40625 L 5.0625 3.78125 L 5.703125 2.9375 L 5.578125 2.828125 C 5.179688 2.972656 4.753906 3.015625 4.296875 2.953125 C 3.835938 2.890625 3.378906 2.691406 2.921875 2.359375 Z M 3.765625 1.796875 C 4.296875 2.191406 4.863281 2.328125 5.46875 2.203125 C 6.070312 2.078125 6.65625 1.640625 7.21875 0.890625 C 7.789062 0.128906 8.050781 -0.554688 8 -1.171875 C 7.945312 -1.785156 7.65625 -2.289062 7.125 -2.6875 C 6.5625 -3.101562 5.992188 -3.242188 5.421875 -3.109375 C 4.859375 -2.972656 4.285156 -2.515625 3.703125 -1.734375 C 2.585938 -0.242188 2.609375 0.929688 3.765625 1.796875 Z M 3.765625 1.796875 "/></g></g></g><g fill="#000000" fill-opacity="1"><g transform="translate(28.289859, 106.49675)"><g/></g></g><g fill="#000000" fill-opacity="1"><g transform="translate(31.374142, 108.275296)"><g/></g></g><g fill="#000000" fill-opacity="1"><g transform="translate(34.565941, 109.852764)"><g/></g></g><g fill="#000000" fill-opacity="1"><g transform="translate(38.113176, 111.670695)"><g><path d="M 4.0625 1.015625 L 2.640625 0.65625 L 2.8125 -9.1875 L 3.90625 -8.921875 L 3.75 -0.78125 L 3.90625 -0.734375 L 7.890625 -7.921875 L 8.90625 -7.671875 L 9.09375 0.546875 L 9.25 0.59375 L 12.90625 -6.671875 L 13.953125 -6.421875 L 9.515625 2.359375 L 8.078125 2.015625 L 7.890625 -5.515625 L 7.75 -5.5625 Z M 4.0625 1.015625 "/></g></g></g><g fill="#000000" fill-opacity="1"><g transform="translate(50.980899, 114.454686)"><g><path d="M 2.546875 -8.453125 C 2.316406 -8.472656 2.132812 -8.554688 2 -8.703125 C 1.875 -8.859375 1.820312 -9.046875 1.84375 -9.265625 C 1.863281 -9.484375 1.945312 -9.65625 2.09375 -9.78125 C 2.25 -9.914062 2.441406 -9.972656 2.671875 -9.953125 C 2.890625 -9.929688 3.0625 -9.84375 3.1875 -9.6875 C 3.320312 -9.539062 3.378906 -9.359375 3.359375 -9.140625 C 3.335938 -8.921875 3.25 -8.742188 3.09375 -8.609375 C 2.945312 -8.484375 2.765625 -8.429688 2.546875 -8.453125 Z M 1.265625 0.109375 L 1.890625 -7.09375 L 2.9375 -7 L 2.3125 0.203125 Z M 1.265625 0.109375 "/></g></g></g><g fill="#000000" fill-opacity="1"><g transform="translate(55.040566, 114.917341)"><g><path d="M 1.265625 -0.03125 L 1.0625 -7.265625 L 2.078125 -7.296875 L 2.109375 -6.171875 L 2.25 -6.140625 C 2.476562 -6.566406 2.769531 -6.894531 3.125 -7.125 C 3.488281 -7.363281 3.941406 -7.492188 4.484375 -7.515625 C 5.359375 -7.535156 6 -7.328125 6.40625 -6.890625 C 6.8125 -6.460938 7.023438 -5.785156 7.046875 -4.859375 L 7.1875 -0.203125 L 6.109375 -0.171875 L 5.96875 -4.796875 C 5.957031 -5.234375 5.894531 -5.582031 5.78125 -5.84375 C 5.664062 -6.113281 5.488281 -6.300781 5.25 -6.40625 C 5.007812 -6.519531 4.695312 -6.570312 4.3125 -6.5625 C 3.664062 -6.550781 3.144531 -6.320312 2.75 -5.875 C 2.363281 -5.4375 2.1875 -4.738281 2.21875 -3.78125 L 2.328125 -0.0625 Z M 1.265625 -0.03125 "/></g></g></g><g fill="#000000" fill-opacity="1"><g transform="translate(64.055185, 114.599357)"><g><path d="M 1.25 -0.234375 L -0.125 -7.34375 L 0.859375 -7.546875 L 1.078125 -6.4375 L 1.21875 -6.40625 C 1.382812 -6.875 1.625 -7.25 1.9375 -7.53125 C 2.25 -7.820312 2.675781 -8.019531 3.21875 -8.125 C 4.070312 -8.289062 4.734375 -8.191406 5.203125 -7.828125 C 5.671875 -7.472656 5.992188 -6.84375 6.171875 -5.9375 L 7.0625 -1.359375 L 6 -1.15625 L 5.125 -5.703125 C 5.039062 -6.128906 4.914062 -6.460938 4.75 -6.703125 C 4.59375 -6.941406 4.390625 -7.097656 4.140625 -7.171875 C 3.890625 -7.242188 3.578125 -7.242188 3.203125 -7.171875 C 2.566406 -7.046875 2.085938 -6.734375 1.765625 -6.234375 C 1.453125 -5.742188 1.390625 -5.03125 1.578125 -4.09375 L 2.28125 -0.4375 Z M 1.25 -0.234375 "/></g></g></g><g fill="#000000" fill-opacity="1"><g transform="translate(72.673202, 112.762682)"><g><path d="M -0.890625 -8.78125 C -1.109375 -8.707031 -1.304688 -8.71875 -1.484375 -8.8125 C -1.660156 -8.90625 -1.785156 -9.054688 -1.859375 -9.265625 C -1.921875 -9.472656 -1.90625 -9.664062 -1.8125 -9.84375 C -1.71875 -10.019531 -1.5625 -10.144531 -1.34375 -10.21875 C -1.125 -10.28125 -0.925781 -10.265625 -0.75 -10.171875 C -0.582031 -10.085938 -0.46875 -9.941406 -0.40625 -9.734375 C -0.332031 -9.523438 -0.335938 -9.328125 -0.421875 -9.140625 C -0.515625 -8.960938 -0.671875 -8.84375 -0.890625 -8.78125 Z M 1.203125 -0.375 L -0.984375 -7.265625 L 0.03125 -7.59375 L 2.21875 -0.703125 Z M 1.203125 -0.375 "/></g></g></g><g fill="#000000" fill-opacity="1"><g transform="translate(76.599746, 111.632893)"><g><path d="M 1.15625 -0.515625 L -1.8125 -7.109375 L -0.890625 -7.53125 L -0.421875 -6.515625 L -0.28125 -6.53125 C -0.238281 -7.007812 -0.0976562 -7.425781 0.140625 -7.78125 C 0.390625 -8.132812 0.757812 -8.425781 1.25 -8.65625 C 2.050781 -9.007812 2.71875 -9.066406 3.25 -8.828125 C 3.789062 -8.585938 4.253906 -8.046875 4.640625 -7.203125 L 6.546875 -2.953125 L 5.578125 -2.5 L 3.671875 -6.71875 C 3.492188 -7.113281 3.296875 -7.410156 3.078125 -7.609375 C 2.867188 -7.816406 2.632812 -7.925781 2.375 -7.9375 C 2.113281 -7.945312 1.8125 -7.875 1.46875 -7.71875 C 0.875 -7.457031 0.484375 -7.046875 0.296875 -6.484375 C 0.109375 -5.929688 0.207031 -5.21875 0.59375 -4.34375 L 2.125 -0.953125 Z M 1.15625 -0.515625 "/></g></g></g><g fill="#000000" fill-opacity="1"><g transform="translate(84.751179, 107.869404)"><g><path d="M 4.796875 0.546875 C 3.835938 1.171875 3.03125 1.460938 2.375 1.421875 C 1.726562 1.390625 1.234375 1.113281 0.890625 0.59375 C 0.671875 0.25 0.597656 -0.0859375 0.671875 -0.421875 C 0.753906 -0.753906 0.96875 -1.09375 1.3125 -1.4375 L 1.234375 -1.546875 C 0.972656 -1.535156 0.75 -1.570312 0.5625 -1.65625 C 0.375 -1.738281 0.21875 -1.878906 0.09375 -2.078125 C -0.0625 -2.316406 -0.113281 -2.554688 -0.0625 -2.796875 C -0.0078125 -3.035156 0.140625 -3.289062 0.390625 -3.5625 L 0.3125 -3.6875 C -0.582031 -3.601562 -1.285156 -3.957031 -1.796875 -4.75 C -2.046875 -5.144531 -2.179688 -5.550781 -2.203125 -5.96875 C -2.234375 -6.394531 -2.132812 -6.800781 -1.90625 -7.1875 C -1.675781 -7.582031 -1.335938 -7.925781 -0.890625 -8.21875 C -0.390625 -8.539062 0.101562 -8.695312 0.59375 -8.6875 C 0.632812 -8.925781 0.628906 -9.144531 0.578125 -9.34375 C 0.535156 -9.539062 0.460938 -9.753906 0.359375 -9.984375 L 0.40625 -10.125 L 1.265625 -10.4375 C 1.429688 -10.101562 1.507812 -9.78125 1.5 -9.46875 C 1.488281 -9.15625 1.390625 -8.84375 1.203125 -8.53125 L 1.28125 -8.40625 C 1.582031 -8.382812 1.84375 -8.300781 2.0625 -8.15625 C 2.289062 -8.007812 2.492188 -7.796875 2.671875 -7.515625 C 2.921875 -7.140625 3.050781 -6.738281 3.0625 -6.3125 C 3.082031 -5.882812 2.984375 -5.476562 2.765625 -5.09375 C 2.546875 -4.707031 2.21875 -4.375 1.78125 -4.09375 C 1.726562 -4.050781 1.632812 -3.988281 1.5 -3.90625 C 1.34375 -3.820312 1.226562 -3.757812 1.15625 -3.71875 C 0.96875 -3.59375 0.847656 -3.441406 0.796875 -3.265625 C 0.753906 -3.085938 0.785156 -2.921875 0.890625 -2.765625 C 1.003906 -2.578125 1.148438 -2.476562 1.328125 -2.46875 C 1.515625 -2.46875 1.753906 -2.554688 2.046875 -2.734375 L 3.5 -3.609375 C 4.144531 -3.984375 4.703125 -4.132812 5.171875 -4.0625 C 5.648438 -4 6.046875 -3.722656 6.359375 -3.234375 C 6.597656 -2.867188 6.710938 -2.472656 6.703125 -2.046875 C 6.703125 -1.628906 6.546875 -1.195312 6.234375 -0.75 C 5.921875 -0.300781 5.441406 0.128906 4.796875 0.546875 Z M 1.28125 -4.859375 C 1.707031 -5.128906 1.96875 -5.453125 2.0625 -5.828125 C 2.15625 -6.210938 2.066406 -6.601562 1.796875 -7 C 1.523438 -7.425781 1.195312 -7.671875 0.8125 -7.734375 C 0.4375 -7.804688 0.0351562 -7.707031 -0.390625 -7.4375 C -0.828125 -7.144531 -1.085938 -6.816406 -1.171875 -6.453125 C -1.253906 -6.085938 -1.160156 -5.6875 -0.890625 -5.25 C -0.617188 -4.851562 -0.300781 -4.613281 0.0625 -4.53125 C 0.4375 -4.457031 0.84375 -4.566406 1.28125 -4.859375 Z M 4.296875 -0.21875 C 4.742188 -0.507812 5.078125 -0.796875 5.296875 -1.078125 C 5.523438 -1.367188 5.644531 -1.632812 5.65625 -1.875 C 5.664062 -2.125 5.609375 -2.347656 5.484375 -2.546875 C 5.367188 -2.722656 5.242188 -2.84375 5.109375 -2.90625 C 4.972656 -2.96875 4.804688 -2.976562 4.609375 -2.9375 C 4.421875 -2.894531 4.195312 -2.800781 3.9375 -2.65625 L 2.546875 -1.828125 L 2.34375 -1.703125 C 1.582031 -1.203125 1.390625 -0.660156 1.765625 -0.078125 C 2.222656 0.628906 3.066406 0.582031 4.296875 -0.21875 Z M 4.296875 -0.21875 "/></g></g></g><g fill="#000000" fill-opacity="1"><g transform="translate(91.258067, 103.488229)"><g/></g></g><g fill="#000000" fill-opacity="1"><g transform="translate(94.020633, 101.242297)"><g/></g></g><g fill="#000000" fill-opacity="1"><g transform="translate(96.633768, 98.824125)"><g/></g></g><g fill="#000000" fill-opacity="1"><g transform="translate(99.086755, 96.243645)"><g/></g></g><g fill="#000000" fill-opacity="1"><g transform="translate(101.369536, 93.511442)"><g/></g></g><g fill="#000000" fill-opacity="1"><g transform="translate(103.74134, 90.530675)"><g><path d="M 4.25 -7.515625 L 3.65625 -6.453125 L 0.9375 -7 L -1.078125 -3.4375 L 0.765625 -1.359375 L 0.1875 -0.328125 L -6.5 -7.96875 L -5.75 -9.3125 Z M -5.171875 -8 L -1.75 -4.171875 L -0.046875 -7.171875 L -5.09375 -8.140625 Z M -5.171875 -8 "/></g></g></g><g fill="#000000" fill-opacity="1"><g transform="translate(108.404682, 82.037019)"><g><path d="M 4.1875 -2.4375 C 3.789062 -1.363281 3.316406 -0.644531 2.765625 -0.28125 C 2.222656 0.0820312 1.660156 0.15625 1.078125 -0.0625 C 0.703125 -0.207031 0.441406 -0.4375 0.296875 -0.75 C 0.148438 -1.0625 0.113281 -1.457031 0.1875 -1.9375 L 0.0625 -1.984375 C -0.144531 -1.816406 -0.347656 -1.707031 -0.546875 -1.65625 C -0.742188 -1.613281 -0.953125 -1.632812 -1.171875 -1.71875 C -1.441406 -1.8125 -1.625 -1.972656 -1.71875 -2.203125 C -1.8125 -2.429688 -1.847656 -2.726562 -1.828125 -3.09375 L -1.953125 -3.140625 C -2.617188 -2.546875 -3.390625 -2.410156 -4.265625 -2.734375 C -4.703125 -2.898438 -5.054688 -3.144531 -5.328125 -3.46875 C -5.609375 -3.789062 -5.773438 -4.175781 -5.828125 -4.625 C -5.878906 -5.070312 -5.8125 -5.546875 -5.625 -6.046875 C -5.414062 -6.617188 -5.113281 -7.046875 -4.71875 -7.328125 C -4.820312 -7.535156 -4.953125 -7.707031 -5.109375 -7.84375 C -5.273438 -7.976562 -5.460938 -8.101562 -5.671875 -8.21875 L -5.71875 -8.375 L -5.21875 -9.125 C -4.882812 -8.945312 -4.628906 -8.734375 -4.453125 -8.484375 C -4.273438 -8.234375 -4.164062 -7.925781 -4.125 -7.5625 L -4 -7.5 C -3.738281 -7.664062 -3.472656 -7.757812 -3.203125 -7.78125 C -2.941406 -7.800781 -2.65625 -7.753906 -2.34375 -7.640625 C -1.914062 -7.484375 -1.570312 -7.234375 -1.3125 -6.890625 C -1.050781 -6.554688 -0.890625 -6.171875 -0.828125 -5.734375 C -0.765625 -5.296875 -0.820312 -4.832031 -1 -4.34375 C -1.019531 -4.289062 -1.066406 -4.1875 -1.140625 -4.03125 C -1.210938 -3.875 -1.257812 -3.753906 -1.28125 -3.671875 C -1.363281 -3.453125 -1.375 -3.257812 -1.3125 -3.09375 C -1.25 -2.925781 -1.128906 -2.8125 -0.953125 -2.75 C -0.742188 -2.675781 -0.5625 -2.6875 -0.40625 -2.78125 C -0.25 -2.875 -0.109375 -3.082031 0.015625 -3.40625 L 0.65625 -4.984375 C 0.945312 -5.671875 1.300781 -6.128906 1.71875 -6.359375 C 2.132812 -6.585938 2.617188 -6.597656 3.171875 -6.390625 C 3.578125 -6.242188 3.898438 -6 4.140625 -5.65625 C 4.390625 -5.3125 4.523438 -4.867188 4.546875 -4.328125 C 4.566406 -3.785156 4.445312 -3.15625 4.1875 -2.4375 Z M -1.875 -4.65625 C -1.695312 -5.132812 -1.679688 -5.550781 -1.828125 -5.90625 C -1.984375 -6.269531 -2.285156 -6.535156 -2.734375 -6.703125 C -3.203125 -6.867188 -3.609375 -6.867188 -3.953125 -6.703125 C -4.304688 -6.535156 -4.570312 -6.210938 -4.75 -5.734375 C -4.9375 -5.242188 -4.953125 -4.828125 -4.796875 -4.484375 C -4.640625 -4.140625 -4.320312 -3.878906 -3.84375 -3.703125 C -3.394531 -3.535156 -3 -3.53125 -2.65625 -3.6875 C -2.320312 -3.84375 -2.0625 -4.164062 -1.875 -4.65625 Z M 3.3125 -2.75 C 3.5 -3.25 3.59375 -3.675781 3.59375 -4.03125 C 3.601562 -4.394531 3.539062 -4.675781 3.40625 -4.875 C 3.28125 -5.082031 3.109375 -5.226562 2.890625 -5.3125 C 2.679688 -5.382812 2.5 -5.40625 2.34375 -5.375 C 2.195312 -5.351562 2.0625 -5.265625 1.9375 -5.109375 C 1.8125 -4.960938 1.691406 -4.753906 1.578125 -4.484375 L 0.9375 -2.984375 L 0.859375 -2.75 C 0.554688 -1.90625 0.722656 -1.363281 1.359375 -1.125 C 2.148438 -0.832031 2.800781 -1.375 3.3125 -2.75 Z M 3.3125 -2.75 "/></g></g></g><g fill="#000000" fill-opacity="1"><g transform="translate(111.165521, 74.490131)"><g><path d="M -1.875 -7.453125 L -2.90625 -2.578125 C -2.03125 -2.421875 -1.351562 -2.492188 -0.875 -2.796875 C -0.394531 -3.097656 -0.0820312 -3.582031 0.0625 -4.25 C 0.164062 -4.75 0.160156 -5.171875 0.046875 -5.515625 C -0.0664062 -5.867188 -0.300781 -6.175781 -0.65625 -6.4375 L -0.625 -6.5625 L -0.078125 -7.140625 C 0.390625 -6.835938 0.722656 -6.425781 0.921875 -5.90625 C 1.128906 -5.394531 1.15625 -4.773438 1 -4.046875 C 0.851562 -3.359375 0.59375 -2.796875 0.21875 -2.359375 C -0.15625 -1.929688 -0.644531 -1.640625 -1.25 -1.484375 C -1.851562 -1.335938 -2.554688 -1.351562 -3.359375 -1.53125 C -4.160156 -1.695312 -4.8125 -1.976562 -5.3125 -2.375 C -5.8125 -2.769531 -6.144531 -3.238281 -6.3125 -3.78125 C -6.488281 -4.320312 -6.507812 -4.898438 -6.375 -5.515625 C -6.1875 -6.421875 -5.78125 -7.078125 -5.15625 -7.484375 C -4.539062 -7.890625 -3.726562 -7.988281 -2.71875 -7.78125 C -2.320312 -7.695312 -2.054688 -7.632812 -1.921875 -7.59375 Z M -2.9375 -6.75 C -3.695312 -6.90625 -4.28125 -6.851562 -4.6875 -6.59375 C -5.09375 -6.34375 -5.359375 -5.921875 -5.484375 -5.328125 C -5.609375 -4.722656 -5.535156 -4.203125 -5.265625 -3.765625 C -5.003906 -3.335938 -4.503906 -3.007812 -3.765625 -2.78125 Z M -2.9375 -6.75 "/></g></g></g><g fill="#000000" fill-opacity="1"><g transform="translate(112.867956, 66.286939)"><g><path d="M 0.0625 -1.265625 L -7.15625 -1.640625 L -7.09375 -2.65625 L -5.96875 -2.59375 L -5.921875 -2.734375 C -6.335938 -2.992188 -6.644531 -3.3125 -6.84375 -3.6875 C -7.050781 -4.070312 -7.140625 -4.535156 -7.109375 -5.078125 C -7.066406 -5.941406 -6.8125 -6.554688 -6.34375 -6.921875 C -5.882812 -7.296875 -5.195312 -7.457031 -4.28125 -7.40625 L 0.375 -7.171875 L 0.3125 -6.09375 L -4.3125 -6.328125 C -4.75 -6.347656 -5.097656 -6.3125 -5.359375 -6.21875 C -5.628906 -6.132812 -5.828125 -5.976562 -5.953125 -5.75 C -6.085938 -5.519531 -6.164062 -5.210938 -6.1875 -4.828125 C -6.21875 -4.179688 -6.03125 -3.644531 -5.625 -3.21875 C -5.226562 -2.800781 -4.550781 -2.566406 -3.59375 -2.515625 L 0.125 -2.328125 Z M 0.0625 -1.265625 "/></g></g></g><g fill="#000000" fill-opacity="1"><g transform="translate(113.246367, 57.312257)"><g><path d="M -0.28125 -4.15625 C -0.21875 -3.519531 -0.304688 -2.929688 -0.546875 -2.390625 C -0.785156 -1.847656 -1.171875 -1.40625 -1.703125 -1.0625 C -2.234375 -0.71875 -2.890625 -0.507812 -3.671875 -0.4375 C -4.453125 -0.351562 -5.140625 -0.425781 -5.734375 -0.65625 C -6.335938 -0.882812 -6.8125 -1.238281 -7.15625 -1.71875 C -7.5 -2.195312 -7.703125 -2.753906 -7.765625 -3.390625 C -7.835938 -4.140625 -7.753906 -4.753906 -7.515625 -5.234375 C -7.273438 -5.722656 -6.921875 -6.09375 -6.453125 -6.34375 L -5.875 -5.671875 L -5.859375 -5.546875 C -6.234375 -5.304688 -6.5 -5.019531 -6.65625 -4.6875 C -6.8125 -4.351562 -6.863281 -3.953125 -6.8125 -3.484375 C -6.769531 -3.035156 -6.625 -2.648438 -6.375 -2.328125 C -6.125 -2.015625 -5.78125 -1.789062 -5.34375 -1.65625 C -4.914062 -1.519531 -4.398438 -1.484375 -3.796875 -1.546875 C -3.191406 -1.597656 -2.691406 -1.738281 -2.296875 -1.96875 C -1.898438 -2.207031 -1.613281 -2.503906 -1.4375 -2.859375 C -1.257812 -3.210938 -1.191406 -3.613281 -1.234375 -4.0625 C -1.285156 -4.550781 -1.441406 -4.945312 -1.703125 -5.25 C -1.960938 -5.5625 -2.34375 -5.785156 -2.84375 -5.921875 L -2.859375 -6.046875 L -2.53125 -6.796875 C -1.90625 -6.671875 -1.390625 -6.382812 -0.984375 -5.9375 C -0.585938 -5.488281 -0.351562 -4.894531 -0.28125 -4.15625 Z M -0.28125 -4.15625 "/></g></g></g><g fill="#000000" fill-opacity="1"><g transform="translate(112.391489, 49.282254)"><g><path d="M 2.625 -2.15625 C 2.6875 -1.914062 2.722656 -1.6875 2.734375 -1.46875 C 2.742188 -1.257812 2.726562 -1.078125 2.6875 -0.921875 L 1.828125 -0.875 L 1.765625 -1 C 1.785156 -1.113281 1.796875 -1.25 1.796875 -1.40625 C 1.796875 -1.570312 1.773438 -1.734375 1.734375 -1.890625 C 1.660156 -2.171875 1.5625 -2.394531 1.4375 -2.5625 C 1.3125 -2.726562 1.140625 -2.851562 0.921875 -2.9375 C 0.710938 -3.03125 0.441406 -3.097656 0.109375 -3.140625 L -0.640625 -3.234375 L -7.109375 1.421875 L -7.390625 0.3125 L -2.21875 -3.359375 L -2.25 -3.46875 L -8.515625 -4.15625 L -8.796875 -5.21875 L 0.125 -4.140625 C 0.601562 -4.085938 1.007812 -3.984375 1.34375 -3.828125 C 1.675781 -3.671875 1.945312 -3.457031 2.15625 -3.1875 C 2.363281 -2.914062 2.519531 -2.570312 2.625 -2.15625 Z M 2.625 -2.15625 "/></g></g></g><g fill="#000000" fill-opacity="1"><g transform="translate(110.267819, 41.492532)"><g/></g></g><g fill="#000000" fill-opacity="1"><g transform="translate(109.023, 38.156896)"><g/></g></g></svg>