<svg width="156" height="156" viewBox="0 0 156 156" fill="none" xmlns="http://www.w3.org/2000/svg">
<path d="M32.7866 26.32L29.8613 16.9006L30.7516 16.1368L33.6769 25.429L32.7866 26.32ZM38.51 21.9922L30.2429 16.7733L31.2604 16.0095L39.6546 21.1011L38.51 21.9922ZM32.0235 22.374L35.9663 19.3191L36.6022 20.2101L32.6594 23.2651L32.0235 22.374Z" fill="#1A1A1A"/>
<path d="M42.9615 19.0646L36.3478 12.1909L37.6197 11.5544L43.5974 17.919L43.343 18.0462L41.4352 9.5178L42.8343 8.75406L48.6849 15.2459L48.4305 15.3732L46.5227 6.8447L47.6674 6.20825L49.5752 15.5004L48.1761 16.2642L42.3256 10.1542L42.5799 10.027L44.3605 18.3008L42.9615 19.0646Z" fill="#1A1A1A"/>
<path d="M53.1367 13.9728L53.6455 4.17142L54.7901 3.78955L54.4086 13.4636L53.1367 13.9728ZM53.7726 10.0268L58.4785 8.49929L58.8601 9.51761L54.1542 11.0451L53.7726 10.0268ZM59.8776 11.8088L54.027 4.17142L55.1717 3.78955L61.2766 11.427L59.8776 11.8088Z" fill="#1A1A1A"/>
<path d="M64.0748 10.918L62.6758 1.75307L66.237 1.24391C66.8729 1.11661 67.5089 1.11661 68.0176 1.24391C68.5263 1.3712 68.9079 1.62578 69.2895 2.00765C69.5438 2.38952 69.7982 2.77139 69.9254 3.28055C70.0526 3.78971 69.9254 4.29887 69.7982 4.68074C69.5438 5.06261 69.2895 5.44448 68.9079 5.69906C68.5263 5.95364 67.8904 6.20823 67.2545 6.33552L64.7108 6.71739L64.5836 5.69906L67.1273 5.31719C67.7632 5.1899 68.1448 5.06261 68.3992 4.68074C68.6535 4.42616 68.7807 3.917 68.6535 3.53513C68.5263 3.02597 68.3992 2.77139 68.0176 2.51681C67.636 2.26223 67.1273 2.26223 66.6185 2.38952L64.4564 2.77139L65.7282 10.7907L64.0748 10.918ZM69.2895 10.0269L64.202 6.20823L65.8554 5.95364L71.3244 9.77235L69.2895 10.0269Z" fill="#1A1A1A"/>
<path d="M74.1211 9.51768V0.352783H75.5201V9.51768H74.1211ZM74.8842 9.51768V8.37207H77.3007C78.0639 8.37207 78.6998 8.24478 79.2085 7.9902C79.7173 7.73562 80.0988 7.22646 80.3532 6.7173C80.6076 6.20813 80.7348 5.57168 80.7348 4.93523C80.7348 4.29878 80.6076 3.66233 80.3532 3.15317C80.0988 2.64401 79.7173 2.13485 79.2085 1.88027C78.6998 1.62569 78.0639 1.4984 77.3007 1.4984H74.8842V0.352783H77.3007C78.3182 0.352783 79.0813 0.480073 79.8445 0.861944C80.6076 1.24381 81.1163 1.75298 81.4979 2.38943C81.8794 3.02588 82.1338 3.91691 82.1338 4.80794C82.1338 5.69897 81.8794 6.59001 81.4979 7.22646C81.1163 7.86291 80.4804 8.49936 79.8445 8.88123C79.0813 9.2631 78.3182 9.39039 77.3007 9.39039L74.8842 9.51768Z" fill="#1A1A1A"/>
<path d="M92.0553 10.9179L91.8009 1.37109L93.0728 1.75296L93.2 10.4087L92.8184 10.2814L97.1427 2.644L98.669 3.02587V11.8089H98.4146L102.866 4.29877L104.138 4.68064L99.1777 12.8272L97.6515 12.4453V3.9169L97.9058 4.04419L93.5815 11.427L92.0553 10.9179Z" fill="#1A1A1A"/>
<path d="M104.647 14.8638L108.335 6.46265L109.607 6.97181L105.919 15.5003L104.647 14.8638Z" fill="#1A1A1A"/>
<path d="M109.225 17.0277L113.803 9.13574L115.202 9.89948L115.457 19.0644L115.202 18.9371L119.145 12.0634L120.29 12.6999L115.711 20.7192L114.312 19.9554L114.058 10.7905L114.312 10.9178L110.369 17.7915L109.225 17.0277Z" fill="#1A1A1A"/>
<path d="M118.637 22.7559L124.487 15.6277L125.632 16.646L124.36 25.8109L124.106 25.6836L129.193 19.5737L130.211 20.3374L124.36 27.4657L123.215 26.4474L124.487 17.2825L124.742 17.4097L119.654 23.5197L118.637 22.7559Z" fill="#1A1A1A"/>
<path d="M126.904 30.0113L133.772 23.9014L134.663 24.9197L127.795 31.0296L126.904 30.0113ZM127.413 30.5205L128.176 29.7567L131.992 33.9573L131.229 34.721L127.413 30.5205ZM130.465 27.7201L131.356 27.0836L134.79 31.0296L134.027 31.7934L130.465 27.7201ZM133.391 25.1743L134.154 24.4105L137.842 28.6111L137.079 29.3748L133.391 25.1743Z" fill="#1A1A1A"/>
<path d="M133.137 37.2669L140.768 32.1753L142.803 35.2303C143.184 35.7394 143.439 36.2486 143.439 36.7577C143.566 37.2669 143.439 37.7761 143.312 38.1579C143.184 38.5398 142.803 38.9217 142.421 39.1763C142.04 39.4308 141.531 39.5581 141.022 39.6854C140.514 39.6854 140.132 39.5581 139.623 39.3035C139.114 39.049 138.733 38.6671 138.351 38.0306L136.952 35.8667L137.843 35.2303L139.242 37.3942C139.623 37.9034 140.005 38.1579 140.386 38.2852C140.768 38.4125 141.149 38.2852 141.531 38.0306C141.913 37.7761 142.167 37.3942 142.167 37.0123C142.167 36.6305 142.04 36.1213 141.658 35.6121L140.386 33.7028L133.645 38.1579L133.137 37.2669ZM136.062 41.7221L137.461 35.4848L138.351 36.885L137.207 43.3768L136.062 41.7221Z" fill="#1A1A1A"/>
<path d="M142.039 53.5601L151.832 54.0692L152.214 55.2148L142.548 54.833L142.039 53.5601ZM144.201 60.3064L151.96 54.4511L152.341 55.5967L144.583 61.5793L144.201 60.3064ZM146.109 54.0692L147.635 58.779L146.618 59.1608L145.092 54.4511L146.109 54.0692Z" fill="#1A1A1A"/>
<path d="M145.601 68.3258C145.474 67.4348 145.474 66.5437 145.856 65.78C146.11 65.0162 146.619 64.3798 147.255 63.9979C147.891 63.4888 148.654 63.2342 149.544 63.1069C150.435 62.9796 151.325 62.9796 152.088 63.3615C152.851 63.6161 153.487 64.1252 153.996 64.6344C154.504 65.1435 154.759 66.0346 154.886 66.7983C155.013 67.4348 154.886 68.0712 154.759 68.7077C154.632 69.3441 154.25 69.8533 153.869 70.2351C153.487 70.617 152.978 70.9989 152.342 71.1262L152.088 69.8533C152.597 69.726 153.105 69.3441 153.36 68.835C153.614 68.3258 153.741 67.6893 153.614 67.0529C153.487 66.4164 153.36 65.9073 152.978 65.5254C152.597 65.1435 152.215 64.7617 151.579 64.6344C150.943 64.5071 150.307 64.3798 149.671 64.5071C148.908 64.6344 148.272 64.889 147.891 65.1435C147.382 65.5254 147.001 65.9073 146.873 66.4164C146.619 66.9256 146.619 67.5621 146.746 68.3258C146.873 68.835 147.001 69.2168 147.128 69.5987C147.382 69.9806 147.636 70.2351 147.891 70.4897L147.636 71.8899C147.128 71.508 146.619 70.9989 146.237 70.4897C145.983 69.8533 145.729 69.0895 145.601 68.3258ZM147.382 70.4897L150.18 70.1079L149.799 70.617L149.417 67.9439L150.562 67.8166L151.07 71.508L147.509 72.0172L147.382 70.4897Z" fill="#1A1A1A"/>
<path d="M146.49 76.0906H147.635V81.8186H146.49V76.0906ZM146.49 75.4541L155.648 75.5814V76.9816L146.49 76.8543V75.4541ZM150.56 76.2178H151.705V81.4367H150.56V76.2178ZM154.503 76.2178H155.648V81.8186H154.503V76.2178Z" fill="#1A1A1A"/>
<path d="M146.11 85.2554L155.14 86.6556L154.886 88.1831L146.364 91.7472V91.4926L154.122 92.7655L153.868 94.0384L144.838 92.6382L145.092 91.1107L153.614 87.5466V87.8012L145.855 86.5283L146.11 85.2554Z" fill="#1A1A1A"/>
<path d="M142.676 99.8937C142.93 99.2573 143.184 98.7481 143.566 98.3663C143.947 97.9844 144.456 97.6025 144.965 97.3479C145.474 97.0933 146.11 96.9661 146.618 96.9661C147.254 96.9661 147.89 97.0934 148.526 97.2206C149.162 97.4752 149.798 97.7298 150.18 98.1117C150.688 98.4935 151.07 99.0027 151.324 99.5119C151.579 100.021 151.706 100.53 151.833 101.167C151.833 101.803 151.833 102.312 151.579 102.949C151.324 103.585 151.07 104.222 150.561 104.603C150.052 105.113 149.544 105.367 149.035 105.495C148.399 105.622 147.763 105.749 147.127 105.495L147.509 104.222C148.272 104.349 148.908 104.222 149.416 103.967C149.925 103.712 150.307 103.203 150.561 102.44C150.815 101.93 150.815 101.294 150.688 100.785C150.561 100.276 150.307 99.7665 149.798 99.3846C149.416 99.0027 148.78 98.6208 148.145 98.3663C147.509 98.1117 146.873 98.1117 146.237 98.1117C145.601 98.239 145.092 98.3663 144.711 98.7481C144.329 99.13 143.947 99.5119 143.82 100.148C143.566 100.785 143.566 101.421 143.82 102.058C144.075 102.694 144.456 103.076 145.092 103.458L144.711 104.731C144.075 104.476 143.566 103.967 143.184 103.458C142.803 102.949 142.548 102.44 142.548 101.803C142.421 101.294 142.421 100.657 142.676 99.8937Z" fill="#1A1A1A"/>
<path d="M139.242 108.55L142.803 110.332L148.908 109.568L148.145 110.968L142.803 111.477L143.057 110.841L145.728 115.551L145.092 116.823L142.04 111.35L138.479 109.568L139.242 108.55Z" fill="#1A1A1A"/>
<path d="M118.127 133.626L126.394 138.717L125.377 139.481L116.982 134.389L118.127 133.626ZM124.614 133.116L120.798 136.171L120.162 135.28L123.978 132.225L124.614 133.116ZM123.723 129.17L126.649 138.463L125.758 139.226L122.706 129.934L123.723 129.17Z" fill="#1A1A1A"/>
<path d="M113.676 136.681L120.417 143.554L119.145 144.191L113.04 137.826L113.295 137.699L115.33 146.227L113.931 146.991L107.953 140.627L108.207 140.499L110.115 149.028L108.97 149.664L106.935 140.372L108.334 139.608L114.185 145.718L113.931 145.846L112.023 137.572L113.676 136.681Z" fill="#1A1A1A"/>
<path d="M96.7601 143.936L102.738 151.574L101.593 151.955L95.4883 144.318L96.7601 143.936ZM102.992 145.718L98.2864 147.246L97.9048 146.227L102.611 144.7L102.992 145.718ZM103.501 141.772L103.119 151.574L101.975 151.955L102.229 142.154L103.501 141.772Z" fill="#1A1A1A"/>
<path d="M87.4759 145.846L92.6906 149.664L91.0371 149.919L85.5681 146.1L87.4759 145.846ZM92.6906 145.082L94.2168 154.119L90.6556 154.756C90.0196 154.883 89.3837 154.883 88.875 154.756C88.3662 154.629 87.9847 154.374 87.6031 153.992C87.3487 153.61 87.0944 153.228 86.9672 152.719C86.84 152.21 86.9672 151.701 87.0944 151.319C87.2216 150.937 87.6031 150.555 87.9847 150.173C88.3662 149.919 89.0022 149.664 89.6381 149.537L92.1818 149.155L92.309 150.173L89.7653 150.555C89.1294 150.683 88.7478 150.81 88.4934 151.192C88.239 151.446 88.1119 151.955 88.239 152.337C88.3662 152.846 88.4934 153.101 88.875 153.356C89.2565 153.61 89.7653 153.61 90.274 153.483L92.4362 153.101L91.0371 145.209L92.6906 145.082Z" fill="#1A1A1A"/>
<path d="M81.7535 146.482V147.628H79.337C78.5739 147.628 77.9379 147.755 77.4292 148.137C76.9204 148.519 76.5389 148.9 76.2845 149.41C76.0301 149.919 75.903 150.555 75.903 151.192C75.903 151.828 76.0301 152.465 76.2845 152.974C76.5389 153.483 76.9204 153.865 77.4292 154.119C77.9379 154.374 78.5739 154.501 79.337 154.501H81.7535V155.647H79.337C78.3195 155.647 77.5564 155.52 76.7933 155.138C76.0301 154.756 75.5214 154.247 75.1398 153.61C74.7583 152.974 74.5039 152.083 74.5039 151.192C74.5039 150.301 74.6311 149.41 75.1398 148.773C75.6486 148.137 76.1573 147.5 76.7933 147.118C77.5564 146.737 78.3195 146.482 79.337 146.482H81.7535ZM82.6438 146.482L82.771 155.647H81.372L81.2448 146.482H82.6438Z" fill="#1A1A1A"/>
<path d="M64.7092 145.336L65.0907 154.883L63.8189 154.501L63.5645 145.718L63.946 145.845L59.7489 153.483L58.2227 153.101L58.0955 144.318L58.477 144.445L54.1527 152.083L52.8809 151.828L57.7139 143.554L59.2402 143.936L59.3673 152.465L59.113 152.337L63.3101 144.954L64.7092 145.336Z" fill="#1A1A1A"/>
<path d="M52.1182 141.39L48.557 149.791L47.2852 149.282L50.8464 140.881L52.1182 141.39Z" fill="#1A1A1A"/>
<path d="M47.4131 139.481L42.8344 147.5L41.4353 146.736L41.0538 137.572L41.3081 137.699L37.3654 144.572L36.2207 143.936L40.7994 135.917L42.3256 136.553L42.7072 145.718L42.4528 145.591L46.3956 138.717L47.4131 139.481Z" fill="#1A1A1A"/>
<path d="M37.9997 133.753L32.2763 140.881L31.0045 139.863L32.1492 130.698L32.4035 130.825L27.4433 136.935L26.4258 136.171L32.1492 129.043L33.421 130.062L32.2763 139.226L32.022 139.099L36.9822 132.989L37.9997 133.753Z" fill="#1A1A1A"/>
<path d="M23.2467 131.589L22.4835 132.353L18.668 128.28L19.4311 127.516L23.2467 131.589ZM26.0448 128.916L25.2816 129.68L21.7204 125.861L22.4835 125.097L26.0448 128.916ZM29.606 126.625L22.8651 132.862L21.9748 131.844L28.7157 125.606L29.606 126.625ZM29.2244 126.116L28.3341 126.879L24.5185 122.679L25.2816 121.915L29.2244 126.116Z" fill="#1A1A1A"/>
<path d="M23.3742 119.496L15.8702 124.715L13.8352 121.788C13.4537 121.278 13.1993 120.769 13.1993 120.26C13.1993 119.751 13.1993 119.242 13.3265 118.86C13.4537 118.478 13.8352 118.096 14.2168 117.714C14.5983 117.46 15.1071 117.205 15.6158 117.205C16.1246 117.205 16.5061 117.332 17.0149 117.587C17.5236 117.842 17.9052 118.223 18.2867 118.86L19.813 121.024L18.9227 121.66L17.5236 119.496C17.1421 118.987 16.7605 118.733 16.379 118.605C15.9974 118.478 15.6158 118.605 15.2343 118.86C14.8527 119.114 14.5983 119.496 14.5983 119.878C14.5983 120.26 14.7255 120.769 15.1071 121.278L16.379 123.06L22.9926 118.478L23.3742 119.496ZM20.3217 115.041L19.0499 121.278L18.1596 120.005L19.3042 113.514L20.3217 115.041Z" fill="#1A1A1A"/>
<path d="M12.0537 96.7114L4.42257 102.694L4.04102 101.548L11.6722 95.4385L12.0537 96.7114ZM14.2159 103.458L4.42257 103.076L4.04102 101.93L13.8343 102.185L14.2159 103.458ZM10.2731 102.949L8.7469 98.2389L9.76439 97.857L11.2906 102.567L10.2731 102.949Z" fill="#1A1A1A"/>
<path d="M10.5284 88.6922C10.6556 89.5832 10.6556 90.4742 10.4012 91.238C10.1468 92.0017 9.63809 92.6382 9.00216 93.1473C8.36623 93.6565 7.60312 93.911 6.71282 94.0383C5.82251 94.1656 4.93221 94.1656 4.1691 93.9111C3.40598 93.6565 2.77005 93.2746 2.26131 92.6381C1.75256 92.0017 1.49819 91.3652 1.24382 90.4742C1.11663 89.8378 1.11663 89.2013 1.371 88.5649C1.49819 87.9284 1.87975 87.4192 2.26131 87.0374C2.64286 86.6555 3.15161 86.2736 3.78754 86.1463L4.04191 87.4192C3.53317 87.5465 3.02442 87.9284 2.77005 88.4376C2.51568 88.9467 2.38849 89.5832 2.51568 90.2196C2.64286 90.8561 2.89724 91.3652 3.27879 91.7471C3.66035 92.129 4.1691 92.5109 4.67784 92.6381C5.18658 92.7654 5.9497 92.8927 6.58563 92.7654C7.34875 92.6381 7.85749 92.3836 8.36623 92.129C8.87498 91.7471 9.12935 91.3652 9.38372 90.8561C9.63809 90.3469 9.63809 89.7105 9.51091 88.9467C9.38372 88.4376 9.25654 88.0557 9.12935 87.6738C8.87498 87.292 8.62061 87.0374 8.36623 86.7828L8.62061 85.3826C9.12935 85.7645 9.63809 86.2736 10.0197 86.7828C10.1468 87.1647 10.4012 87.8011 10.5284 88.6922ZM8.62061 86.5282L5.82251 86.9101L6.20407 86.4009L6.58563 89.074L5.44096 89.2013L4.80503 85.5099L8.23905 85.0007L8.62061 86.5282Z" fill="#1A1A1A"/>
<path d="M1.49819 80.9274H0.353516V75.3266H1.49819V80.9274ZM9.51091 81.5638H0.353516V80.1636H9.51091V81.5638ZM5.31377 80.9274H4.1691V75.7085H5.31377V80.9274ZM9.51091 80.8001H8.36623V75.072H9.51091V80.8001Z" fill="#1A1A1A"/>
<path d="M9.76458 71.7627L0.734375 70.4898L0.988747 68.9623L9.38302 65.2709V65.5255L1.62468 64.3798L1.75186 63.1069L10.7821 64.3798L10.5277 65.9073L2.13342 69.5987V69.3442L9.89177 70.4898L9.76458 71.7627Z" fill="#1A1A1A"/>
<path d="M12.9445 56.997C12.6901 57.6334 12.4358 58.1426 12.0542 58.5245C11.6726 59.0336 11.1639 59.2882 10.6552 59.5428C10.1464 59.7974 9.51048 59.9247 9.00174 59.9247C8.49299 59.9247 7.72988 59.9247 7.09395 59.6701C6.45802 59.4155 5.82209 59.1609 5.44053 58.779C4.93178 58.3972 4.55023 58.0153 4.29585 57.5061C4.04148 56.997 3.78711 56.4878 3.78711 55.8514C3.78711 55.2149 3.78711 54.7058 4.04148 54.0693C4.29585 53.4328 4.55023 52.7964 5.05897 52.4145C5.44053 51.9054 6.07646 51.6508 6.5852 51.3962C7.09395 51.1416 7.85706 51.1416 8.49299 51.2689L8.11143 52.5418C7.34832 52.4145 6.71239 52.5418 6.20364 52.9237C5.6949 53.3056 5.31334 53.8147 5.05897 54.5785C4.93178 55.2149 4.8046 55.7241 4.93178 56.2332C5.18616 56.7424 5.44053 57.2516 5.82209 57.6334C6.20364 58.0153 6.83957 58.3972 7.4755 58.5245C8.11143 58.779 8.74736 58.779 9.38329 58.779C10.0192 58.6518 10.528 58.5245 10.9095 58.1426C11.2911 57.7607 11.6726 57.3788 11.7998 56.7424C12.0542 56.1059 12.0542 55.4695 11.7998 54.833C11.5455 54.1966 11.1639 53.8147 10.528 53.4328L10.9095 52.1599C11.5455 52.4145 12.0542 52.9237 12.4358 53.3056C12.8173 53.942 13.0717 54.4512 13.0717 55.0876C13.1989 55.7241 13.1989 56.3605 12.9445 56.997Z" fill="#1A1A1A"/>
<path d="M16.2523 48.4684L12.6911 46.6864L6.45898 47.4501L7.2221 46.0499L12.5639 45.4135L12.3095 46.0499L9.51145 41.4675L10.1474 40.1946L13.1998 45.5408L16.7611 47.3228L16.2523 48.4684Z" fill="#1A1A1A"/>
</svg>
